<svg width="60" height="60" viewBox="0 0 60 60" fill="none" xmlns="http://www.w3.org/2000/svg">
<g filter="url(#filter0_d_1001_58)">
<circle cx="30" cy="26" r="26" fill="url(#paint0_linear_1001_58)"/>
</g>
<path d="M50.4914 22.2939C48.8178 12.4615 40.2406 5 29.92 5C19.5995 5 11.0223 12.4615 9.34869 22.2939L29.92 11.9733L50.4914 22.2939ZM9.34869 29.5461C11.0223 39.3785 19.5995 46.84 29.92 46.84C40.2406 46.84 48.8178 39.3785 50.4914 29.5461L29.92 39.8667L9.34869 29.5461Z" fill="#699635"/>
<path d="M29.92 11.9731L9.34867 22.2937C9.13947 23.4791 9 24.6646 9 25.9198C9 27.175 9.13947 28.3605 9.34867 29.5459L29.92 39.8665L50.4913 29.5459C50.7005 28.3605 50.84 27.175 50.84 25.9198C50.84 24.6646 50.7005 23.4791 50.4913 22.2937L29.92 11.9731Z" fill="#FFE62E"/>
<path d="M25.736 23.4097C23.5046 23.4097 21.4126 23.8978 19.5298 24.7346C19.46 25.153 19.46 25.5017 19.46 25.9201C19.46 31.7079 24.1322 36.3801 29.92 36.3801C33.8251 36.3801 37.242 34.2183 39.0551 31.0803C36.475 26.5477 31.4542 23.4097 25.736 23.4097Z" fill="#428BC1"/>
<path d="M40.2406 27.5936C40.3103 27.0357 40.38 26.4778 40.38 25.92C40.38 20.1321 35.7079 15.46 29.92 15.46C25.8058 15.46 22.2494 17.8309 20.506 21.3176C22.1796 20.8294 23.923 20.5505 25.736 20.5505C31.6634 20.5505 36.8934 23.3398 40.2406 27.5936Z" fill="#428BC1"/>
<path d="M25.736 20.5503C23.9229 20.5503 22.1796 20.8292 20.506 21.3174C20.0179 22.3634 19.6692 23.4791 19.5297 24.7343C21.4125 23.8975 23.5045 23.4094 25.736 23.4094C31.4541 23.4094 36.4749 26.4776 39.0551 31.0103C39.6827 29.9643 40.0313 28.7788 40.2405 27.5934C36.8933 23.3396 31.6633 20.5503 25.736 20.5503Z" fill="white"/>
<path d="M22.9467 26.6173C23.3318 26.6173 23.644 26.3051 23.644 25.92C23.644 25.5349 23.3318 25.2227 22.9467 25.2227C22.5615 25.2227 22.2493 25.5349 22.2493 25.92C22.2493 26.3051 22.5615 26.6173 22.9467 26.6173Z" fill="white"/>
<path d="M25.736 30.8014C26.1211 30.8014 26.4333 30.4892 26.4333 30.1041C26.4333 29.7189 26.1211 29.4067 25.736 29.4067C25.3508 29.4067 25.0386 29.7189 25.0386 30.1041C25.0386 30.4892 25.3508 30.8014 25.736 30.8014Z" fill="white"/>
<path d="M29.92 30.8014C30.3051 30.8014 30.6173 30.4892 30.6173 30.1041C30.6173 29.7189 30.3051 29.4067 29.92 29.4067C29.5349 29.4067 29.2227 29.7189 29.2227 30.1041C29.2227 30.4892 29.5349 30.8014 29.92 30.8014Z" fill="white"/>
<path d="M29.92 33.5905C30.3051 33.5905 30.6173 33.2783 30.6173 32.8931C30.6173 32.508 30.3051 32.1958 29.92 32.1958C29.5349 32.1958 29.2227 32.508 29.2227 32.8931C29.2227 33.2783 29.5349 33.5905 29.92 33.5905Z" fill="white"/>
<path d="M35.4987 30.8014C35.8838 30.8014 36.196 30.4892 36.196 30.1041C36.196 29.7189 35.8838 29.4067 35.4987 29.4067C35.1135 29.4067 34.8013 29.7189 34.8013 30.1041C34.8013 30.4892 35.1135 30.8014 35.4987 30.8014Z" fill="white"/>
<path d="M35.4987 33.5905C35.8838 33.5905 36.196 33.2783 36.196 32.8931C36.196 32.508 35.8838 32.1958 35.4987 32.1958C35.1135 32.1958 34.8013 32.508 34.8013 32.8931C34.8013 33.2783 35.1135 33.5905 35.4987 33.5905Z" fill="white"/>
<path d="M32.7093 32.1959C33.0944 32.1959 33.4066 31.8837 33.4066 31.4986C33.4066 31.1135 33.0944 30.8013 32.7093 30.8013C32.3242 30.8013 32.012 31.1135 32.012 31.4986C32.012 31.8837 32.3242 32.1959 32.7093 32.1959Z" fill="white"/>
<path d="M22.9467 29.4069C23.3318 29.4069 23.644 29.0947 23.644 28.7095C23.644 28.3244 23.3318 28.0122 22.9467 28.0122C22.5615 28.0122 22.2493 28.3244 22.2493 28.7095C22.2493 29.0947 22.5615 29.4069 22.9467 29.4069Z" fill="white"/>
<defs>
<filter id="filter0_d_1001_58" x="0" y="0" width="60" height="60" filterUnits="userSpaceOnUse" color-interpolation-filters="sRGB">
<feFlood flood-opacity="0" result="BackgroundImageFix"/>
<feColorMatrix in="SourceAlpha" type="matrix" values="0 0 0 0 0 0 0 0 0 0 0 0 0 0 0 0 0 0 127 0" result="hardAlpha"/>
<feOffset dy="4"/>
<feGaussianBlur stdDeviation="2"/>
<feComposite in2="hardAlpha" operator="out"/>
<feColorMatrix type="matrix" values="0 0 0 0 0 0 0 0 0 0 0 0 0 0 0 0 0 0 0.25 0"/>
<feBlend mode="normal" in2="BackgroundImageFix" result="effect1_dropShadow_1001_58"/>
<feBlend mode="normal" in="SourceGraphic" in2="effect1_dropShadow_1001_58" result="shape"/>
</filter>
<linearGradient id="paint0_linear_1001_58" x1="30" y1="0" x2="30" y2="52" gradientUnits="userSpaceOnUse">
<stop offset="0.43" stop-color="white"/>
<stop offset="1" stop-color="#CBCBCB"/>
</linearGradient>
</defs>
</svg>
