<svg width="550" height="548" viewBox="0 0 550 548" fill="none" xmlns="http://www.w3.org/2000/svg">
<g opacity="0.2">
<path d="M548.914 276.009C548.516 330.043 532.079 382.748 501.678 427.474C471.278 472.2 428.275 506.942 378.097 527.315C327.919 547.689 272.815 552.78 219.738 541.948C166.662 531.115 117.992 504.843 79.8715 466.448C41.7505 428.054 15.8867 379.257 5.54378 326.215C-4.79915 273.174 0.842308 218.265 21.7563 168.418C42.6702 118.572 77.9195 76.0207 123.056 46.1358C168.192 16.2509 221.192 0.371242 275.368 0.500786C348.258 0.900575 418.009 30.1412 469.298 81.7994C520.588 133.457 549.223 203.308 548.914 276.009Z" stroke="white"/>
<path d="M484.349 277.361C484.349 393.251 390.784 487.195 275.37 487.195C159.956 487.195 66.3905 393.251 66.3905 277.361C66.3905 161.47 159.956 67.5264 275.37 67.5264C390.784 67.5264 484.349 161.47 484.349 277.361Z" stroke="white"/>
<path d="M310.928 139.854L310.932 139.854C318.326 139.795 325.657 141.204 332.5 143.999C339.342 146.794 345.558 150.918 350.787 156.133C356.015 161.348 360.15 167.548 362.952 174.372C365.754 181.197 367.166 188.509 367.107 195.883V195.883C367.003 210.713 361.051 224.905 350.537 235.392C340.024 245.878 325.795 251.815 310.927 251.919H175.049C188.92 236.537 196.674 216.609 196.819 195.894C197.051 185.392 195.176 174.949 191.304 165.18C187.577 155.776 182.072 147.179 175.094 139.854L310.928 139.854Z" stroke="white"/>
<path d="M175.094 300.24H334.65C349.55 300.24 363.839 306.144 374.375 316.652C384.91 327.16 390.829 341.412 390.829 356.273C390.829 371.133 384.91 385.385 374.375 395.893C363.839 406.402 349.55 412.305 334.65 412.305H175.049C188.92 396.923 196.674 376.995 196.819 356.28C197.051 345.778 195.176 335.335 191.304 325.566C187.577 316.162 182.072 307.565 175.094 300.24Z" stroke="white"/>
</g>
</svg>
