<svg width="44" height="44" viewBox="0 0 44 44" fill="none" xmlns="http://www.w3.org/2000/svg">
<circle cx="22" cy="22" r="22" fill="#F7D622"/>
<path d="M29.7118 32.6267H14.3032C14.1004 32.6267 13.8977 32.5051 13.8166 32.3023L9.03182 17.6642C8.95072 17.4614 9.03182 17.2181 9.19401 17.0965L21.7236 8.05407C21.7236 8.05407 22.1291 7.93242 22.2913 8.05407L34.7804 17.0559C34.7804 17.0559 35.0237 17.4209 34.9426 17.6236L30.1578 32.2618C30.0767 32.4645 29.9145 32.5862 29.6712 32.5862L29.7118 32.6267ZM14.6681 31.613H29.3874L33.9288 17.6642L22.0075 9.06779L10.1266 17.6642L14.6681 31.613Z" fill="black"/>
<path d="M29.7118 32.7079C29.7118 32.7079 29.428 32.6268 29.3063 32.5052L22.0075 22.6518L14.7087 32.5052C14.5465 32.7079 14.2221 32.789 14.0194 32.6268C13.8166 32.4646 13.7356 32.1402 13.8977 31.9375L21.602 21.557C21.8048 21.3137 22.2103 21.3137 22.413 21.557L30.1173 31.9375C30.2795 32.1402 30.239 32.4646 29.9957 32.6268C29.9146 32.7079 29.7929 32.7079 29.7118 32.7079Z" fill="black"/>
<path d="M21.8049 22.1646C21.5211 22.1646 21.3184 21.9213 21.3184 21.6781V8.70241C21.3184 8.41856 21.5211 8.21582 21.8049 8.21582C22.0888 8.21582 22.2915 8.45911 22.2915 8.70241V21.6375C22.2915 21.9213 22.0888 22.1241 21.8049 22.1241V22.1646Z" fill="black"/>
<path d="M22.0076 22.3263C21.8048 22.3263 21.6021 22.2046 21.521 22.0019C21.4399 21.7586 21.5616 21.4748 21.8454 21.3531L34.3345 17.0549C34.5777 16.9738 34.8616 17.0955 34.9832 17.3793C35.0643 17.6226 34.9427 17.9065 34.6588 18.0281L22.1698 22.3263C22.1698 22.3263 22.0481 22.3263 22.0076 22.3263Z" fill="black"/>
<path d="M22.0076 22.3266C22.0076 22.3266 21.886 22.3266 21.8454 22.3266L9.35635 18.0284C9.11306 17.9474 8.95086 17.6635 9.03196 17.3797C9.11306 17.1364 9.3969 16.9742 9.68074 17.0553L22.1698 21.3535C22.4131 21.4346 22.5753 21.7184 22.4942 22.0022C22.4131 22.205 22.2104 22.3266 22.0076 22.3266Z" fill="black"/>
<path d="M15.763 30.7206C15.763 30.7206 15.5602 30.7206 15.4791 30.6395C15.3575 30.5584 15.2764 30.3962 15.2764 30.234L15.6413 19.813C15.6413 19.813 15.6413 19.6102 15.7224 19.5291L21.602 11.7843C21.602 11.7843 21.8453 11.5815 22.0075 11.5815C22.1697 11.5815 22.3319 11.6626 22.413 11.8248L27.4005 19.8535C27.4005 19.8535 27.4816 20.0968 27.441 20.2185L25.8596 26.5035C25.8596 26.5035 25.6974 26.7874 25.5758 26.8279L15.9251 30.6395C15.9251 30.6395 15.8035 30.6395 15.7224 30.6395L15.763 30.7206ZM16.655 20.0157L16.2901 29.5042L25.0081 26.0575L26.4679 20.2185L22.0075 12.9602L16.6956 19.9752L16.655 20.0157Z" fill="black"/>
</svg>
