<svg width="60" height="60" viewBox="0 0 60 60" fill="none" xmlns="http://www.w3.org/2000/svg">
<g filter="url(#filter0_d_1001_59)">
<circle cx="30" cy="26" r="26" fill="url(#paint0_linear_1001_59)"/>
</g>
<path d="M40.8583 7.98941C37.5809 5.96718 33.8154 4.78174 29.7012 4.78174V7.98941H40.8583Z" fill="#ED4C5C"/>
<path d="M29.7012 11.1974H44.7633C43.5779 10.012 42.253 8.89626 40.8583 7.98975H29.7012V11.1974Z" fill="white"/>
<path d="M29.7012 14.4045H47.3434C46.5764 13.219 45.7396 12.173 44.8331 11.1968H29.7012V14.4045Z" fill="#ED4C5C"/>
<path d="M29.7012 17.6125H49.017C48.5289 16.4967 47.971 15.381 47.3434 14.4048H29.7012V17.6125Z" fill="white"/>
<path d="M29.7012 20.8205H50.063C49.784 19.7048 49.4354 18.6588 49.017 17.6128H29.7012V20.8205Z" fill="#ED4C5C"/>
<path d="M29.7012 24.0973H50.5511C50.4814 22.9816 50.2722 21.9356 50.063 20.8896H29.7012V24.0973Z" fill="white"/>
<path d="M50.5511 24.0977H29.7012V25.7015H8.78162C8.78162 26.2593 8.78162 26.7475 8.85135 27.3053H50.5511C50.6208 26.7475 50.6208 26.2593 50.6208 25.7015C50.6208 25.1436 50.6208 24.5858 50.5511 24.0977Z" fill="#ED4C5C"/>
<path d="M9.33945 30.5129H50.063C50.3419 29.4669 50.4813 28.4209 50.5511 27.3052H8.85133C8.92106 28.3512 9.06052 29.4669 9.33945 30.5129Z" fill="white"/>
<path d="M10.3856 33.7204H49.0171C49.4355 32.6744 49.7842 31.6284 50.0631 30.5127H9.33958C9.61851 31.6284 9.96717 32.6744 10.3856 33.7204Z" fill="#ED4C5C"/>
<path d="M12.059 36.9284H47.3434C47.971 35.8824 48.5288 34.8364 49.017 33.7207H10.3854C10.8735 34.8364 11.4314 35.8824 12.059 36.9284Z" fill="white"/>
<path d="M14.5695 40.1359H44.8332C45.7397 39.1596 46.6462 38.0439 47.3435 36.9282H12.0591C12.7564 38.1137 13.6629 39.1596 14.5695 40.1359Z" fill="#ED4C5C"/>
<path d="M18.4744 43.3434H40.9281C42.3925 42.4369 43.6476 41.3212 44.8331 40.1357H14.5694C15.7548 41.3909 17.0797 42.4369 18.4744 43.3434Z" fill="white"/>
<path d="M29.7012 46.6207C33.8154 46.6207 37.6506 45.4352 40.928 43.3433H18.4743C21.7517 45.4352 25.587 46.6207 29.7012 46.6207Z" fill="#ED4C5C"/>
<path d="M18.5441 7.98941C17.0797 8.89593 15.7548 10.0116 14.5694 11.1971C13.5931 12.1733 12.7563 13.289 12.059 14.4048C11.4314 15.4507 10.8038 16.4967 10.3855 17.6124C9.96706 18.6584 9.6184 19.7044 9.33947 20.8201C9.06054 21.8661 8.92108 22.9121 8.85135 24.0278C8.78162 24.5856 8.78162 25.1435 8.78162 25.7013H29.7012V4.78174C25.587 4.78174 21.8215 5.96718 18.5441 7.98941Z" fill="#428BC1"/>
<path d="M24.82 5.479L25.1686 6.52498H26.2146L25.3778 7.2223L25.6568 8.26828L24.82 7.6407L23.9832 8.26828L24.2621 7.2223L23.4253 6.52498H24.4713L24.82 5.479ZM27.6093 9.66292L27.9579 10.7089H29.0039L28.1671 11.4062L28.446 12.4522L27.6093 11.8246L26.7725 12.4522L27.0514 11.4062L26.2146 10.7089H27.2606L27.6093 9.66292ZM22.0307 9.66292L22.3793 10.7089H23.4253L22.5885 11.4062L22.8675 12.4522L22.0307 11.8246L21.1939 12.4522L21.4728 11.4062L20.636 10.7089H21.682L22.0307 9.66292ZM24.82 13.8468L25.1686 14.8928H26.2146L25.3778 15.5901L25.6568 16.6361L24.82 16.0085L23.9832 16.6361L24.2621 15.5901L23.4253 14.8928H24.4713L24.82 13.8468ZM19.2414 13.8468L19.5901 14.8928H20.636L19.7993 15.5901L20.0782 16.6361L19.2414 16.0085L18.4046 16.6361L18.6836 15.5901L17.8468 14.8928H18.8927L19.2414 13.8468ZM13.6628 13.8468L14.0115 14.8928H15.0575L14.2207 15.5901L14.4996 16.6361L13.6628 16.0085L12.8261 16.6361L13.105 15.5901L12.2682 14.8928H13.3142L13.6628 13.8468ZM27.6093 18.0308L27.9579 19.0767H29.0039L28.1671 19.7741L28.446 20.82L27.6093 20.1925L26.7725 20.82L27.0514 19.7741L26.2146 19.0767H27.2606L27.6093 18.0308ZM22.0307 18.0308L22.3793 19.0767H23.4253L22.5885 19.7741L22.8675 20.82L22.0307 20.1925L21.1939 20.82L21.4728 19.7741L20.636 19.0767H21.682L22.0307 18.0308ZM16.4521 18.0308L16.8008 19.0767H17.8468L17.01 19.7741L17.2889 20.82L16.4521 20.1925L15.6153 20.82L15.8943 19.7741L15.0575 19.0767H16.1035L16.4521 18.0308ZM24.82 22.2147L25.1686 23.2607H26.2146L25.3778 23.958L25.6568 25.004L24.82 24.3764L23.9832 25.004L24.2621 23.958L23.4253 23.2607H24.4713L24.82 22.2147ZM19.2414 22.2147L19.5901 23.2607H20.636L19.7993 23.958L20.0782 25.004L19.2414 24.3764L18.4046 25.004L18.6836 23.958L17.8468 23.2607H18.8927L19.2414 22.2147ZM13.6628 22.2147L14.0115 23.2607H15.0575L14.2207 23.958L14.4996 25.004L13.6628 24.3764L12.8261 25.004L13.105 23.958L12.2682 23.2607H13.3142L13.6628 22.2147ZM15.6153 12.4522L16.4521 11.8246L17.2889 12.4522L16.9402 11.4062L17.777 10.7089H16.7311L16.4521 9.66292L16.1035 10.7089H15.1272L15.964 11.3365L15.6153 12.4522ZM10.0368 20.82L10.8736 20.1925L11.7103 20.82L11.3617 19.7741L12.1985 19.0767H11.2222L10.8736 18.0308L10.5249 19.0767H9.82758C9.82758 19.1465 9.75785 19.2162 9.75785 19.2859L10.3157 19.7043L10.0368 20.82Z" fill="white"/>
<defs>
<filter id="filter0_d_1001_59" x="0" y="0" width="60" height="60" filterUnits="userSpaceOnUse" color-interpolation-filters="sRGB">
<feFlood flood-opacity="0" result="BackgroundImageFix"/>
<feColorMatrix in="SourceAlpha" type="matrix" values="0 0 0 0 0 0 0 0 0 0 0 0 0 0 0 0 0 0 127 0" result="hardAlpha"/>
<feOffset dy="4"/>
<feGaussianBlur stdDeviation="2"/>
<feComposite in2="hardAlpha" operator="out"/>
<feColorMatrix type="matrix" values="0 0 0 0 0 0 0 0 0 0 0 0 0 0 0 0 0 0 0.25 0"/>
<feBlend mode="normal" in2="BackgroundImageFix" result="effect1_dropShadow_1001_59"/>
<feBlend mode="normal" in="SourceGraphic" in2="effect1_dropShadow_1001_59" result="shape"/>
</filter>
<linearGradient id="paint0_linear_1001_59" x1="30" y1="0" x2="30" y2="52" gradientUnits="userSpaceOnUse">
<stop offset="0.43" stop-color="white"/>
<stop offset="1" stop-color="#CBCBCB"/>
</linearGradient>
</defs>
</svg>
