<svg width="44" height="44" viewBox="0 0 44 44" fill="none" xmlns="http://www.w3.org/2000/svg">
<circle cx="22" cy="22" r="22" fill="#F7D622"/>
<g clip-path="url(#clip0_1001_60)">
<path d="M22.0772 23.0175C20.0331 23.0175 18.3361 21.428 18.3361 19.4319V16.5856C18.3361 14.6265 19.9945 13 22.0772 13C24.1598 13 25.8182 14.5895 25.8182 16.5856V19.4319C25.8182 21.3911 24.1598 23.0175 22.0772 23.0175ZM22.0772 13.7763C20.4573 13.7763 19.146 15.0331 19.146 16.5856V19.4319C19.146 20.9844 20.4573 22.2412 22.0772 22.2412C23.697 22.2412 25.0083 20.9844 25.0083 19.4319V16.5856C25.0083 15.0331 23.697 13.7763 22.0772 13.7763Z" fill="black"/>
<path d="M26.2039 31.9998H17.8347C16.3692 31.9998 15.1736 30.8539 15.1736 29.4492V26.492C15.1736 25.9006 15.5593 25.3461 16.292 24.7916C16.9091 24.348 17.6033 23.9784 18.4133 23.7936L20.9973 23.0912C21.2287 23.0173 21.4215 23.1651 21.4987 23.35C21.5758 23.5718 21.4215 23.7566 21.2287 23.8305L18.6447 24.5329C17.9504 24.7177 17.3334 25.0134 16.7934 25.42C16.4077 25.6788 15.9835 26.1223 15.9835 26.529V29.4862C15.9835 30.4473 16.832 31.2605 17.8347 31.2605H26.2039C27.2066 31.2605 28.0551 30.4473 28.0551 29.4862V26.529C28.0551 26.1223 27.6309 25.7157 27.2452 25.42C26.7438 25.0134 26.0882 24.7177 25.394 24.5329L22.8871 23.8675C22.6557 23.7936 22.54 23.6087 22.6171 23.3869C22.6942 23.1651 22.8871 23.0543 23.1185 23.1282L25.6254 23.7936C26.4353 24.0153 27.1681 24.348 27.7466 24.7916C28.4794 25.3461 28.865 25.9375 28.865 26.492V29.4492C28.865 30.8539 27.6695 31.9998 26.2039 31.9998Z" fill="black"/>
<path d="M21.0744 23.8306C20.843 23.8306 20.6501 23.6457 20.6501 23.4239V22.6107C20.6501 22.3889 20.843 22.2041 21.0744 22.2041C21.3058 22.2041 21.4986 22.3889 21.4986 22.6107V23.4239C21.4986 23.6457 21.3058 23.8306 21.0744 23.8306Z" fill="black"/>
<path d="M22.9642 23.8675C22.7328 23.8675 22.54 23.6827 22.54 23.4609V22.6107C22.54 22.3889 22.7328 22.2041 22.9642 22.2041C23.1956 22.2041 23.3885 22.3889 23.3885 22.6107V23.4609C23.3885 23.6827 23.1956 23.8675 22.9642 23.8675Z" fill="black"/>
<path d="M22 27.1576C20.6887 27.1576 19.6474 25.8269 19.6474 24.2004C19.6474 24.0156 19.6474 23.8308 19.686 23.646C19.686 23.4242 19.9174 23.2763 20.1488 23.3133C20.3802 23.3133 20.5345 23.5351 20.4959 23.7569C20.4959 23.9047 20.4959 24.0526 20.4959 24.2004C20.4959 25.3833 21.1901 26.3814 22.0386 26.3814C22.8871 26.3814 23.5813 25.3833 23.5813 24.2004C23.5813 24.0526 23.5813 23.9047 23.5813 23.7569C23.5813 23.5351 23.697 23.3502 23.9284 23.3133C24.1598 23.3133 24.3526 23.4242 24.3912 23.646C24.3912 23.8308 24.4298 24.0156 24.4298 24.2004C24.4298 25.8269 23.3884 27.1576 22.0772 27.1576H22Z" fill="black"/>
<path d="M23.3113 16.9924C22.9642 16.9924 22.6171 16.9185 22.3085 16.7706C21.9229 16.5858 21.6915 16.364 21.4601 16.1422C21.2672 15.9204 21.1129 15.8095 20.9201 15.7726C20.4573 15.6617 19.8017 16.0313 19.0303 16.8076C18.876 16.9554 18.6061 16.9924 18.4518 16.8076C18.2975 16.6597 18.259 16.401 18.4518 16.2531C19.4545 15.2181 20.303 14.8115 21.1129 14.9963C21.5758 15.1072 21.8457 15.366 22.0771 15.5877C22.2314 15.7726 22.4242 15.9204 22.6556 16.0313C23.0799 16.2161 23.7355 16.327 25.1625 15.5508C25.3554 15.4399 25.6253 15.5138 25.7025 15.6986C25.8182 15.8835 25.741 16.1422 25.5482 16.2161C24.6997 16.6967 23.9669 16.9185 23.3113 16.9185V16.9924Z" fill="black"/>
<path d="M29.9063 21.9825C28.0551 21.9825 26.551 20.5409 26.551 18.7665V16.216C26.551 14.4416 28.0551 13 29.9063 13C31.7576 13 33.2617 14.4416 33.2617 16.216V18.7665C33.2617 20.5409 31.7576 21.9825 29.9063 21.9825ZM29.9063 13.7763C28.4793 13.7763 27.3609 14.8852 27.3609 16.216V18.7665C27.3609 20.1342 28.5179 21.2062 29.9063 21.2062C31.2948 21.2062 32.4518 20.0973 32.4518 18.7665V16.216C32.4518 14.8482 31.2948 13.7763 29.9063 13.7763Z" fill="black"/>
<path d="M24.7768 24.3483C24.7768 24.3483 24.5454 24.3113 24.4683 24.2004C24.314 24.0526 24.314 23.7938 24.4683 23.646C24.5454 23.572 24.6226 23.5351 24.6997 23.4611C25.2397 23.0545 25.8953 22.7588 26.6281 22.537L28.9421 21.9086C29.1735 21.8347 29.3664 21.9825 29.4435 22.1674C29.5206 22.3891 29.3664 22.574 29.1735 22.6479L26.8595 23.2763C26.2424 23.4611 25.7025 23.7199 25.2397 24.0526C25.1625 24.0895 25.124 24.1265 25.0468 24.2004C24.9697 24.2744 24.854 24.3113 24.7768 24.3113V24.3483Z" fill="black"/>
<path d="M33.5703 30.004H28.4408C28.2094 30.004 28.0165 29.8192 28.0165 29.5974C28.0165 29.3756 28.2094 29.1908 28.4408 29.1908H33.5703C34.4573 29.1908 35.1901 28.4885 35.1901 27.6383V25.0138C35.1901 24.755 34.9587 24.4223 34.4959 24.0527C34.0331 23.72 33.4931 23.4612 32.876 23.2764L30.6391 22.685C30.4077 22.611 30.292 22.4262 30.3692 22.2044C30.4463 21.9826 30.6391 21.8717 30.8705 21.9457L33.1075 22.5371C33.8402 22.7219 34.4959 23.0546 35.0358 23.4612C35.6915 23.9787 36.0386 24.4962 36.0386 25.0138V27.6383C36.0386 28.932 34.9587 29.9671 33.6088 29.9671L33.5703 30.004Z" fill="black"/>
<path d="M29.0193 22.722C28.7879 22.722 28.595 22.5371 28.595 22.3153V21.576C28.595 21.3543 28.7879 21.1694 29.0193 21.1694C29.2507 21.1694 29.4435 21.3543 29.4435 21.576V22.3153C29.4435 22.5371 29.2507 22.722 29.0193 22.722Z" fill="black"/>
<path d="M30.7162 22.7586C30.4848 22.7586 30.292 22.5738 30.292 22.352V21.6127C30.292 21.3909 30.4848 21.2061 30.7162 21.2061C30.9476 21.2061 31.1405 21.3909 31.1405 21.6127V22.352C31.1405 22.5738 30.9476 22.7586 30.7162 22.7586Z" fill="black"/>
<path d="M29.8292 25.6791C28.6336 25.6791 27.6694 24.4962 27.6694 23.0176C27.6694 22.8698 27.6694 22.6849 27.6694 22.5371C27.6694 22.3153 27.9008 22.1674 28.1322 22.2044C28.3636 22.2044 28.5179 22.4262 28.4794 22.648C28.4794 22.7589 28.4794 22.9067 28.4794 23.0176C28.4794 24.0526 29.0964 24.9028 29.8292 24.9028C30.562 24.9028 31.1791 24.0526 31.1791 23.0176C31.1791 22.9067 31.1791 22.7589 31.1791 22.648C31.1791 22.4262 31.2948 22.2414 31.5262 22.2044C31.7576 22.2044 31.9504 22.3153 31.989 22.5371C31.989 22.6849 31.989 22.8698 31.989 23.0176C31.989 24.4962 31.0248 25.6791 29.8292 25.6791Z" fill="black"/>
<path d="M31.0248 16.6595C30.7162 16.6595 30.4077 16.5855 30.0991 16.4746C29.752 16.3268 29.5206 16.105 29.3278 15.9202C29.135 15.7353 29.0193 15.6244 28.865 15.5875C28.4793 15.5136 27.9008 15.8093 27.2451 16.4746C27.0909 16.6225 26.8209 16.6595 26.6666 16.4746C26.5124 16.3268 26.4738 16.068 26.6666 15.9202C27.5537 14.996 28.325 14.6264 29.0578 14.7743C29.4821 14.8851 29.7135 15.1069 29.9449 15.3287C30.0991 15.4766 30.2534 15.6244 30.4463 15.7353C30.8319 15.8832 31.4104 15.9941 32.6446 15.3287C32.8374 15.2178 33.1074 15.2918 33.1845 15.4766C33.3002 15.6614 33.2231 15.9202 33.0303 15.9941C32.2589 16.4007 31.6033 16.6225 31.0248 16.6225V16.6595Z" fill="black"/>
<path d="M14.2094 21.9825C12.3581 21.9825 10.854 20.5409 10.854 18.7665V16.216C10.854 14.4416 12.3581 13 14.2094 13C16.0606 13 17.5647 14.4416 17.5647 16.216V18.7665C17.5647 20.5409 16.0606 21.9825 14.2094 21.9825ZM14.2094 13.7763C12.7824 13.7763 11.6639 14.8852 11.6639 16.216V18.7665C11.6639 20.1342 12.8209 21.2062 14.2094 21.2062C15.5978 21.2062 16.7548 20.0973 16.7548 18.7665V16.216C16.7548 14.8482 15.5978 13.7763 14.2094 13.7763Z" fill="black"/>
<path d="M15.5592 30.0041H10.4298C9.07989 30.0041 8 28.9691 8 27.6753V25.0508C8 24.5333 8.34711 23.9788 9.00275 23.4982C9.5427 23.0916 10.1983 22.7959 10.9311 22.5741L13.2452 21.9457C13.4766 21.8718 13.6694 22.0196 13.7466 22.2045C13.8237 22.4263 13.6694 22.6111 13.4766 22.685L11.1625 23.3134C10.5455 23.4982 10.0055 23.757 9.5427 24.0897C9.07989 24.4224 8.84848 24.755 8.84848 25.0508V27.6753C8.84848 28.5255 9.58127 29.2278 10.4683 29.2278H15.5978C15.8292 29.2278 16.022 29.4126 16.022 29.6344C16.022 29.8562 15.8292 30.041 15.5978 30.041L15.5592 30.0041Z" fill="black"/>
<path d="M19.1846 24.3111C19.1846 24.3111 18.9917 24.3111 18.9146 24.2002C18.876 24.1632 18.7989 24.1263 18.7603 24.0893C18.2975 23.7566 17.7576 23.4978 17.1405 23.313L14.9036 22.7216C14.6722 22.6477 14.5565 22.4628 14.6336 22.241C14.7107 22.0192 14.9036 21.9084 15.135 21.9823L17.3719 22.5737C18.1047 22.7585 18.7603 23.0912 19.3003 23.4978C19.3774 23.5348 19.416 23.6087 19.4931 23.6457C19.6474 23.7936 19.6859 24.0154 19.5317 24.2002C19.4545 24.2741 19.3388 24.348 19.2231 24.348L19.1846 24.3111Z" fill="black"/>
<path d="M13.3609 22.722C13.1295 22.722 12.9366 22.5371 12.9366 22.3153V21.576C12.9366 21.3543 13.1295 21.1694 13.3609 21.1694C13.5923 21.1694 13.7851 21.3543 13.7851 21.576V22.3153C13.7851 22.5371 13.5923 22.722 13.3609 22.722Z" fill="black"/>
<path d="M15.0193 22.7586C14.7879 22.7586 14.595 22.5738 14.595 22.352V21.6127C14.595 21.3909 14.7879 21.2061 15.0193 21.2061C15.2507 21.2061 15.4435 21.3909 15.4435 21.6127V22.352C15.4435 22.5738 15.2507 22.7586 15.0193 22.7586Z" fill="black"/>
<path d="M14.1323 25.6791C12.9367 25.6791 11.9725 24.4962 11.9725 23.0176C11.9725 22.8328 11.9725 22.6849 11.9725 22.5371C11.9725 22.3153 12.2039 22.1674 12.4353 22.2044C12.6667 22.2044 12.821 22.4262 12.7824 22.648C12.7824 22.7589 12.7824 22.9067 12.7824 23.0176C12.7824 24.0526 13.3995 24.9028 14.1323 24.9028C14.865 24.9028 15.4821 24.0526 15.4821 23.0176C15.4821 22.8698 15.4821 22.7589 15.4821 22.648C15.4821 22.4262 15.5978 22.2414 15.8292 22.2044C16.0606 22.2044 16.2535 22.3153 16.292 22.5371C16.292 22.6849 16.292 22.8698 16.292 23.0176C16.292 24.4962 15.3278 25.6791 14.1323 25.6791Z" fill="black"/>
<path d="M15.3278 16.6595C15.0193 16.6595 14.7107 16.5855 14.4022 16.4746C14.0551 16.3268 13.8237 16.105 13.6308 15.9202C13.438 15.7353 13.3223 15.6244 13.168 15.5875C12.7438 15.5136 12.2038 15.8093 11.5482 16.4746C11.3939 16.6225 11.1239 16.6595 10.9697 16.4746C10.8154 16.3268 10.7768 16.068 10.9697 15.9202C11.8567 14.996 12.6281 14.6264 13.3609 14.7743C13.7851 14.8851 14.0165 15.1069 14.2479 15.3287C14.4022 15.4766 14.5565 15.6244 14.7493 15.7353C15.135 15.8832 15.7135 15.9941 16.9476 15.3287C17.1405 15.2178 17.4104 15.2918 17.4876 15.4766C17.6033 15.6614 17.5261 15.9202 17.3333 15.9941C16.562 16.4007 15.9063 16.6225 15.3278 16.6225V16.6595Z" fill="black"/>
</g>
<defs>
<clipPath id="clip0_1001_60">
<rect width="28" height="19" fill="white" transform="translate(8 13)"/>
</clipPath>
</defs>
</svg>
