<svg width="44" height="44" viewBox="0 0 44 44" fill="none" xmlns="http://www.w3.org/2000/svg">
<circle cx="22" cy="22" r="22" fill="#F7D622"/>
<path d="M25.6556 30.7065H18.4153C18.1879 30.7065 17.9984 30.517 17.9984 30.2895C17.9984 30.0621 18.1879 29.8726 18.4153 29.8726H25.6556C25.883 29.8726 26.0726 30.0621 26.0726 30.2895C26.0726 30.517 25.883 30.7065 25.6556 30.7065Z" fill="black"/>
<path d="M25.6556 32.1465H18.4153C18.1879 32.1465 17.9984 31.9569 17.9984 31.7295C17.9984 31.502 18.1879 31.3125 18.4153 31.3125H25.6556C25.883 31.3125 26.0726 31.502 26.0726 31.7295C26.0726 31.9569 25.883 32.1465 25.6556 32.1465Z" fill="black"/>
<path d="M22.0165 34.1166C20.3107 34.1166 19.4009 33.3205 19.363 33.2826L18.1121 32.0696C18.1121 32.0696 17.9984 31.8801 17.9984 31.7664V28.9233C17.9984 28.6959 18.1879 28.5063 18.4153 28.5063C18.6428 28.5063 18.8323 28.6959 18.8323 28.9233V31.6147L19.9695 32.714C19.9695 32.714 20.6898 33.3205 22.0544 33.3205C23.4191 33.3205 24.1393 32.714 24.1772 32.714L25.2765 31.6147V28.9233C25.2765 28.6959 25.466 28.5063 25.6935 28.5063C25.9209 28.5063 26.1105 28.6959 26.1105 28.9233V31.7664C26.1105 31.7664 26.0726 31.9938 25.9967 32.0696L24.7458 33.2826C24.7458 33.2826 23.7981 34.1166 22.0923 34.1166H22.0165Z" fill="black"/>
<path d="M25.6557 29.3032H18.4154C18.4154 29.3032 18.188 29.2653 18.1122 29.1895C18.0363 29.1137 17.9984 28.9999 17.9984 28.8862C17.9984 28.6588 17.9984 28.3176 17.9984 28.2039C17.9984 28.166 17.9984 28.0523 17.9605 27.9385C17.8847 27.4457 17.771 26.3085 17.2403 25.702C14.6247 22.7832 14.7384 20.6983 14.7763 20.3571C14.7763 16.3769 18.0363 13.1548 22.0166 13.1548C25.9968 13.1548 29.2189 16.3769 29.2568 20.3571C29.2568 20.6604 29.4085 22.7832 26.7929 25.702C26.3001 26.3085 26.1484 27.4457 26.0726 27.9385C26.0726 28.0523 26.0726 28.166 26.0347 28.2039C26.0347 28.3176 26.0347 28.6209 26.0347 28.8862C26.0347 28.9999 26.0347 29.1137 25.921 29.1895C25.8452 29.2653 25.7315 29.3032 25.6177 29.3032H25.6557ZM18.8324 28.5071H25.2008C25.2008 28.5071 25.2008 28.166 25.2008 28.0143C25.2008 28.0143 25.2008 27.9006 25.2008 27.8248C25.2766 27.2562 25.4282 25.9295 26.1105 25.1713C28.6124 22.3662 28.385 20.4708 28.385 20.4329C28.385 20.4329 28.385 20.395 28.385 20.3571C28.385 16.8318 25.504 13.9129 21.9787 13.9129C18.4533 13.9129 15.5724 16.7939 15.5724 20.3571C15.5724 20.3571 15.5724 20.395 15.5724 20.4329C15.5724 20.4329 15.3449 22.3662 17.8468 25.1334C18.5291 25.9295 18.6808 27.2562 18.7566 27.8248C18.7566 27.9006 18.7566 27.9764 18.7566 28.0143C18.7566 28.1281 18.7566 28.3176 18.7566 28.5071H18.8324Z" fill="black"/>
<path d="M17.5435 20.8885C17.3161 20.8885 17.1265 20.699 17.1265 20.4716C17.1265 17.7802 19.3251 15.5815 22.0165 15.5815C22.244 15.5815 22.4335 15.7711 22.4335 15.9985C22.4335 16.226 22.244 16.4155 22.0165 16.4155C19.78 16.4155 17.9226 18.235 17.9226 20.5095C17.9226 20.7369 17.733 20.9264 17.5056 20.9264L17.5435 20.8885Z" fill="black"/>
<path d="M22.2819 11.8665C22.0545 11.8665 21.8649 11.677 21.8649 11.4495V8.41698C21.8649 8.18954 22.0545 8 22.2819 8C22.5093 8 22.6989 8.18954 22.6989 8.41698V11.4874C22.6989 11.7149 22.5093 11.9044 22.2819 11.9044V11.8665Z" fill="black"/>
<path d="M28.4608 14.4827C28.4608 14.4827 28.2713 14.4448 28.1954 14.369C28.0438 14.2173 28.0438 13.952 28.1954 13.8004L30.3561 11.6397C30.3561 11.6397 30.7731 11.488 30.9248 11.6397C31.0764 11.7913 31.0764 12.0566 30.9248 12.2083L28.7641 14.369C28.7641 14.369 28.5745 14.4827 28.4987 14.4827H28.4608Z" fill="black"/>
<path d="M34.033 20.6982H30.9625C30.7351 20.6982 30.5455 20.5087 30.5455 20.2812C30.5455 20.0538 30.7351 19.8643 30.9625 19.8643H34.033C34.2604 19.8643 34.45 20.0538 34.45 20.2812C34.45 20.5087 34.2604 20.6982 34.033 20.6982Z" fill="black"/>
<path d="M30.5076 29.0383C30.5076 29.0383 30.3181 29.0004 30.2423 28.9246L28.0816 26.7639C28.0816 26.7639 27.9299 26.3469 28.0816 26.1953C28.2332 26.0436 28.4985 26.0436 28.6502 26.1953L30.8109 28.356C30.8109 28.356 30.9625 28.7729 30.8109 28.9246C30.735 29.0004 30.6213 29.0383 30.5455 29.0383H30.5076Z" fill="black"/>
<path d="M13.7908 28.9256C13.7908 28.9256 13.6013 28.8876 13.5255 28.8118C13.3738 28.6602 13.3738 28.3949 13.5255 28.2432L15.6862 26.0825C15.6862 26.0825 16.1031 25.9309 16.2548 26.0825C16.4064 26.2342 16.4064 26.4995 16.2548 26.6511L14.0941 28.8118C14.0941 28.8118 13.9045 28.9256 13.8287 28.9256H13.7908Z" fill="black"/>
<path d="M13.4495 20.5468H10.417C10.1895 20.5468 10 20.3573 10 20.1299C10 19.9024 10.1895 19.7129 10.417 19.7129H13.4874C13.7149 19.7129 13.9044 19.9024 13.9044 20.1299C13.9044 20.3573 13.7149 20.5468 13.4874 20.5468H13.4495Z" fill="black"/>
<path d="M16.065 14.3679C16.065 14.3679 15.8755 14.33 15.7997 14.2542L13.639 12.0935C13.639 12.0935 13.4874 11.6765 13.639 11.5249C13.7906 11.3732 14.056 11.3732 14.2076 11.5249L16.3683 13.6856C16.3683 13.6856 16.5199 14.1025 16.3683 14.2542C16.2925 14.33 16.1788 14.3679 16.1029 14.3679H16.065Z" fill="black"/>
</svg>
