<svg width="55" height="54" viewBox="0 0 55 54" fill="none" xmlns="http://www.w3.org/2000/svg">
<path d="M27.5 54C42.6882 54 55 48.5279 55 41.7733C55 38.3335 51.8018 35.2253 46.6538 33C43.5133 38.6949 38.7255 43.6046 32.6425 46.1722C31.0164 46.856 29.2673 47.2085 27.5 47.2085C25.7327 47.2085 23.9836 46.856 22.3575 46.1722C16.2745 43.6046 11.4867 38.6949 8.34625 33.0027C3.19825 35.2225 0 38.3335 0 41.7733C0 48.5279 12.3118 54 27.5 54Z" fill="#F7D622"/>
<path fill-rule="evenodd" clip-rule="evenodd" d="M8 17.9159C8 8.02159 16.7304 0 27.5 0C38.2696 0 47 8.02159 47 17.9159C47 27.7332 40.7767 39.1867 31.0657 43.2841C29.9379 43.7565 28.7252 44 27.5 44C26.2748 44 25.0622 43.7565 23.9343 43.2841C14.2233 39.1867 8 27.7304 8 17.9159ZM27.5 24.7495C28.9776 24.7495 30.3947 24.17 31.4396 23.1386C32.4844 22.1072 33.0714 20.7083 33.0714 19.2496C33.0714 17.7909 32.4844 16.392 31.4396 15.3606C30.3947 14.3292 28.9776 13.7497 27.5 13.7497C26.0224 13.7497 24.6053 14.3292 23.5604 15.3606C22.5156 16.392 21.9286 17.7909 21.9286 19.2496C21.9286 20.7083 22.5156 22.1072 23.5604 23.1386C24.6053 24.17 26.0224 24.7495 27.5 24.7495Z" fill="#F7D622"/>
</svg>
