<svg width="142" height="142" viewBox="0 0 142 142" fill="none" xmlns="http://www.w3.org/2000/svg">
<circle cx="71" cy="71" r="71" fill="#1B1B1B"/>
<rect x="45.3103" y="36.6807" width="50.3535" height="68.6638" fill="white"/>
<path d="M109.122 44.3711C111.747 44.3711 113.913 46.5378 113.913 49.1623C113.913 51.7868 111.747 53.9535 109.122 53.9535C106.498 53.9535 104.331 51.7868 104.331 49.1623C104.331 46.5378 106.498 44.3711 109.122 44.3711Z" fill="#F7D622"/>
<path d="M33.79 86.9736C36.9485 86.9736 39.4967 89.5371 39.4967 92.6804C39.4967 95.8236 36.9333 98.3871 33.79 98.3871C30.6467 98.3871 28.0833 95.8236 28.0833 92.6804C28.0833 89.5371 30.6467 86.9736 33.79 86.9736Z" fill="#F7D622"/>
<path d="M88.9041 70.4482H73.4624V84.9592H88.9041V70.4482Z" fill="#F7D622"/>
<path d="M67.6032 70.4482H52.1615V84.9592H67.6032V70.4482Z" fill="#F7D622"/>
<path d="M89.1025 49.8193H73.6608V64.3303H89.1025V49.8193Z" fill="#F7D622"/>
<path d="M67.8016 49.8193H52.3599V64.3303H67.8016V49.8193Z" fill="#F7D622"/>
<path d="M95.6944 104.262V108.122C95.6944 112.44 92.1391 115.843 87.9735 115.843H53.2449C48.9267 115.843 45.524 112.288 45.524 108.122V104.262H95.6944Z" fill="#F7D622"/>
<path d="M95.6944 34.8039V38.6643H45.524V34.8039C45.524 30.4857 49.0793 27.083 53.2449 27.083H87.9735C92.1391 27.083 95.6944 30.4857 95.6944 34.8039Z" fill="#F7D622"/>
<path d="M109.58 94.9998C110.19 95.6101 110.19 96.5409 109.58 97.0139C108.954 97.6242 108.039 97.6242 107.566 97.0139C106.955 96.3883 106.955 95.4728 107.566 94.9998C108.176 94.3894 109.107 94.3894 109.58 94.9998Z" fill="black"/>
<path d="M104.788 65.0466C105.399 65.6722 105.399 66.5877 104.788 67.0608C104.163 67.6711 103.247 67.6711 102.774 67.0608C102.164 66.4504 102.164 65.5196 102.774 65.0466C103.385 64.4363 104.163 64.4363 104.788 65.0466Z" fill="black"/>
<path d="M103.873 34.1775C104.483 34.7878 104.483 35.7186 103.873 36.1916C103.263 36.802 102.332 36.802 101.859 36.1916C101.249 35.566 101.249 34.6505 101.859 34.1775C102.317 33.5671 103.247 33.5671 103.873 34.1775Z" fill="black"/>
<path d="M38.2608 59.188C38.8712 59.7984 38.8712 60.7292 38.2608 61.2022C37.6505 61.6599 36.7197 61.8125 36.262 61.2022C35.6516 60.5766 35.6516 59.6611 36.262 59.188C36.7197 58.7303 37.6505 58.7303 38.2608 59.188Z" fill="black"/>
<path d="M38.2608 107.497C38.8712 108.107 38.8712 109.038 38.2608 109.495C37.6505 110.121 36.7197 110.121 36.262 109.495C35.6516 108.885 35.6516 107.954 36.262 107.497C36.7197 106.871 37.6505 106.871 38.2608 107.497Z" fill="black"/>
<path d="M31.4707 33.2478C32.081 33.8734 32.081 34.7889 31.4707 35.2619C30.8603 35.8723 29.9296 35.8723 29.4718 35.2619C28.8615 34.6516 28.8615 33.7208 29.4718 33.2478C30.0821 32.6375 30.8603 32.6375 31.4707 33.2478Z" fill="black"/>
<path d="M95.6943 39.5793C95.084 39.5793 94.7635 39.1216 94.7635 38.6485C94.7635 38.1755 95.2213 37.7178 95.6943 37.7178C96.1521 37.7178 96.6251 38.1755 96.6251 38.6485C96.6251 39.1216 96.1673 39.5793 95.6943 39.5793Z" fill="black"/>
<path d="M74.3933 33.7209H66.6725C66.2147 33.7209 65.7417 33.2632 65.7417 32.7902C65.7417 32.3171 66.1995 31.8594 66.6725 31.8594H74.3933C74.8511 31.8594 75.3241 32.3171 75.3241 32.7902C75.3241 33.2632 75.0189 33.7209 74.3933 33.7209Z" fill="black"/>
<path d="M95.6944 105.177H45.3714C44.9137 105.177 44.4407 104.719 44.4407 104.246C44.4407 103.773 44.8984 103.315 45.3714 103.315H95.5418C95.9996 103.315 96.4726 103.773 96.4726 104.246C96.4726 104.719 96.1674 105.177 95.6944 105.177Z" fill="black"/>
<path d="M67.588 85.8891H52.1462C51.6885 85.8891 51.2155 85.4313 51.2155 84.9583V70.4474C51.2155 69.9896 51.6732 69.5166 52.1462 69.5166H67.588C68.0457 69.5166 68.5187 69.9744 68.5187 70.4474V84.9583C68.5187 85.4161 68.2136 85.8891 67.588 85.8891ZM53.0923 83.875H66.6724V71.3782H53.0923V83.875Z" fill="black"/>
<path d="M88.8889 85.8891H73.4471C72.9894 85.8891 72.5164 85.4313 72.5164 84.9583V70.4474C72.5164 69.9896 72.9741 69.5166 73.4471 69.5166H88.8889C89.3466 69.5166 89.8196 69.9744 89.8196 70.4474V84.9583C89.8196 85.4161 89.3619 85.8891 88.8889 85.8891ZM74.3932 83.875H87.9733V71.3782H74.3932V83.875Z" fill="black"/>
<path d="M74.3933 110.899H66.6725C66.2147 110.899 65.7417 110.441 65.7417 109.968C65.7417 109.495 66.1995 109.037 66.6725 109.037H74.3933C74.8511 109.037 75.3241 109.495 75.3241 109.968C75.3241 110.441 75.0189 110.899 74.3933 110.899Z" fill="black"/>
<path d="M87.821 116.758H53.2449C48.4537 116.758 44.4407 112.898 44.4407 107.954V55.7848C44.4407 55.3271 44.8985 54.8541 45.3715 54.8541C45.8445 54.8541 46.3022 55.3118 46.3022 55.7848V107.954C46.3022 111.662 49.3845 114.744 53.0923 114.744H87.821C91.5288 114.744 94.6111 111.662 94.6111 107.954V34.8042C94.6111 31.0964 91.5288 28.0141 87.821 28.0141H53.2449C49.5371 28.0141 46.4548 31.0964 46.4548 34.8042L46.3022 58.0431C46.3022 58.5009 45.8445 58.9739 45.3714 58.9739C44.8984 58.9739 44.4407 58.5161 44.4407 58.0431L44.5933 34.8042C44.5933 30.013 48.4537 26 53.3975 26H88.1261C92.9174 26 96.9304 29.8604 96.9304 34.8042V107.969C96.6252 112.761 92.6122 116.774 87.821 116.774V116.758Z" fill="black"/>
<path d="M67.7863 65.2602H52.3446C51.8868 65.2602 51.4138 64.8024 51.4138 64.3294V49.8185C51.4138 49.3607 51.8716 48.8877 52.3446 48.8877H67.7863C68.2441 48.8877 68.7171 49.3455 68.7171 49.8185V64.3294C68.7171 64.7872 68.4119 65.2602 67.7863 65.2602ZM53.2906 63.2461H66.8708V50.7492H53.2906V63.2461Z" fill="black"/>
<path d="M89.0872 65.2602H73.6455C73.1877 65.2602 72.7147 64.8024 72.7147 64.3294V49.8185C72.7147 49.3607 73.1725 48.8877 73.6455 48.8877H89.0872C89.545 48.8877 90.018 49.3455 90.018 49.8185V64.3294C90.018 64.7872 89.5602 65.2602 89.0872 65.2602ZM74.5915 63.2461H88.1717V50.7492H74.5915V63.2461Z" fill="black"/>
<path d="M109.122 55.0214C105.887 55.0214 103.263 52.3969 103.263 49.162C103.263 45.9272 105.887 43.3027 109.122 43.3027C112.357 43.3027 114.981 45.9272 114.981 49.162C114.829 52.3969 112.357 55.0214 109.122 55.0214ZM109.122 45.2864C106.955 45.2864 105.261 46.9801 105.261 49.1468C105.261 51.3135 106.955 53.0072 109.122 53.0072C111.289 53.0072 112.982 51.3135 112.982 49.1468C112.982 46.9801 111.289 45.2864 109.122 45.2864Z" fill="black"/>
<path d="M33.7901 99.3185C30.0822 99.3185 27 96.2362 27 92.5284C27 88.8205 30.0822 85.7383 33.7901 85.7383C37.4979 85.7383 40.5802 88.8205 40.5802 92.5284C40.5802 96.2362 37.4979 99.3185 33.7901 99.3185ZM33.7901 87.7372C31.1656 87.7372 28.9989 89.9039 28.9989 92.5284C28.9989 95.1528 31.1656 97.3196 33.7901 97.3196C36.4146 97.3196 38.5813 95.1528 38.5813 92.5284C38.5813 89.9039 36.5672 87.7372 33.7901 87.7372Z" fill="black"/>
</svg>
