<svg width="142" height="142" viewBox="0 0 142 142" fill="none" xmlns="http://www.w3.org/2000/svg">
<circle cx="71" cy="71" r="71" fill="#1B1B1B"/>
<path d="M112.109 41.1698V88.8674C112.109 91.5246 110.036 93.5978 107.379 93.5978H35.6063C32.9492 93.5978 30.876 91.5246 30.876 88.8674V41.1698C30.876 38.5126 32.9492 36.4395 35.6063 36.4395H107.379C110.036 36.4395 112.109 38.5126 112.109 41.1698Z" fill="white"/>
<path d="M36.4969 41.9141H106.649V82.5308H36.4969V41.9141Z" fill="#F7D622"/>
<path d="M103.846 98.3271C106.372 98.3271 108.43 100.371 108.43 102.911C108.43 105.452 106.386 107.496 103.846 107.496C101.305 107.496 99.2615 105.452 99.2615 102.911C99.2615 100.371 101.305 98.3271 103.846 98.3271Z" fill="#F7D622"/>
<path d="M42.8478 101.13C45.87 101.13 48.3082 103.583 48.3082 106.59C48.3082 109.598 45.8554 112.051 42.8478 112.051C39.8403 112.051 37.3875 109.598 37.3875 106.59C37.3875 103.583 39.8403 101.13 42.8478 101.13Z" fill="#F7D622"/>
<path d="M86.2677 54.0176V60.3685L71.5073 75.1435H64.9957L86.2677 54.0176Z" fill="#F7D622"/>
<path d="M86.2678 60.3682V75.1432H71.5074L86.2678 60.3682Z" fill="white"/>
<path d="M63.2293 41.9141H79.7709H86.2678V54.0173L64.9959 75.1433H56.7324V41.9141H63.2293Z" fill="white"/>
<path d="M111.671 108.81C112.255 109.409 112.255 110.285 111.671 110.737C111.087 111.321 110.197 111.321 109.744 110.737C109.16 110.153 109.16 109.263 109.744 108.81C110.328 108.226 111.219 108.226 111.671 108.81Z" fill="black"/>
<path d="M93.2171 101.437C93.8011 102.021 93.8011 102.912 93.2171 103.364C92.6332 103.948 91.7426 103.948 91.3046 103.364C90.7206 102.766 90.7206 101.89 91.3046 101.437C91.8886 100.853 92.7792 100.853 93.2171 101.437Z" fill="black"/>
<path d="M85.3771 93.6123V94.6489C85.3771 96.5761 83.7566 98.1967 81.8294 98.1967H61.302C59.3749 98.1967 57.7543 96.5761 57.7543 94.6489V93.6123H85.3771Z" fill="#F7D622"/>
<path d="M80.8074 106.606C82.282 106.606 83.6106 107.789 83.6106 109.409C83.6106 110.154 83.3186 110.884 82.72 111.322C82.282 111.76 81.5374 112.066 80.8074 112.066H62.3532C60.8786 112.066 59.55 110.884 59.55 109.263C59.55 108.518 59.842 107.788 60.2946 107.336C60.7326 106.898 61.4772 106.445 62.2072 106.445H76.9822L80.822 106.591L80.8074 106.606Z" fill="#F7D622"/>
<path d="M77.1137 98.3271H66.0325V106.591H77.1137V98.3271Z" fill="white"/>
<path d="M72.8359 86.8076C73.1279 87.0996 73.4199 87.5522 73.4199 88.1362C73.4199 88.7202 73.2739 89.1728 72.8359 89.4648C72.5439 89.7568 72.0913 90.0634 71.5073 90.0634C70.4707 90.0634 69.5947 89.1728 69.5947 88.1362C69.5947 87.6982 69.7407 87.0996 70.1787 86.8076C70.4707 86.5156 70.9233 86.2236 71.5073 86.2236C71.9453 86.2236 72.5439 86.5156 72.8359 86.8076Z" fill="black"/>
<path d="M56.2943 102.313C56.8783 102.911 56.8783 103.787 56.2943 104.24C55.7103 104.824 54.8197 104.824 54.3817 104.24C53.7977 103.656 53.7977 102.765 54.3817 102.313C54.9657 101.875 55.8563 101.875 56.2943 102.313Z" fill="black"/>
<path d="M34.1318 99.5101C34.7158 100.109 34.7158 100.985 34.1318 101.437C33.5478 102.021 32.6572 102.021 32.2046 101.437C31.6206 100.853 31.6206 99.9627 32.2046 99.5101C32.7886 99.0721 33.6792 99.0721 34.1318 99.5101Z" fill="black"/>
<path d="M107.394 94.6334H85.3917C84.9537 94.6334 84.5011 94.1954 84.5011 93.7428C84.5011 93.2902 84.9391 92.8522 85.3917 92.8522H107.394C109.467 92.8522 111.233 91.0856 111.233 89.0124V41.1688C111.233 39.0956 109.467 37.329 107.394 37.329H79.7708C79.3328 37.329 78.8802 36.891 78.8802 36.4384C78.8802 35.9858 79.3182 35.5479 79.7708 35.5479H107.394C110.489 35.5479 113 38.059 113 41.1542V88.8518C113 91.947 110.489 94.6188 107.394 94.6188V94.6334Z" fill="black"/>
<path d="M57.6229 94.6334H35.6063C32.5112 94.6334 30 92.1222 30 89.0271V41.1688C30 38.0737 32.5112 35.5625 35.6063 35.5625H63.2292C63.6672 35.5625 64.1198 36.0005 64.1198 36.4531C64.1198 36.9057 63.6818 37.3437 63.2292 37.3437H35.6063C33.5332 37.3437 31.7666 39.1103 31.7666 41.1834V88.8811C31.7666 90.9543 33.5332 92.7208 35.6063 92.7208H57.6083C58.0463 92.7208 58.4989 93.1588 58.4989 93.6114C58.4989 94.064 58.2069 94.648 57.6083 94.648L57.6229 94.6334Z" fill="black"/>
<path d="M81.6981 99.2186H76.9677C76.5297 99.2186 76.0771 98.7806 76.0771 98.328C76.0771 97.8754 76.5151 97.4374 76.9677 97.4374H81.6981C83.1727 97.4374 84.3552 96.2548 84.3552 94.7802V94.6342H58.6595V94.7802C58.6595 96.2548 59.8421 97.4374 61.3167 97.4374H66.0471C66.485 97.4374 66.9376 97.8754 66.9376 98.328C66.9376 98.7806 66.4996 99.2186 66.0471 99.2186H61.3167C58.8055 99.2186 56.7324 97.1454 56.7324 94.6342V93.5976C56.7324 93.1596 57.1704 92.707 57.623 92.707H85.3918C85.8298 92.707 86.2824 93.145 86.2824 93.5976V94.6342C86.2824 97.1454 84.2092 99.2186 81.6981 99.2186Z" fill="black"/>
<path d="M106.649 83.5664H36.497C36.059 83.5664 35.6064 83.1284 35.6064 82.6758V41.9131C35.6064 41.4751 36.0444 41.0225 36.497 41.0225H56.8783C57.3163 41.0225 57.7689 41.4605 57.7689 41.9131C57.7689 42.3656 57.3309 42.8036 56.8783 42.8036H37.3876V81.6392H105.773V42.9496H86.2824C85.8444 42.9496 85.3918 42.5116 85.3918 42.059C85.3918 41.6065 85.8298 41.1685 86.2824 41.1685H106.664C107.102 41.1685 107.554 41.6065 107.554 42.059V82.6758C107.554 83.1138 107.116 83.5664 106.664 83.5664H106.649Z" fill="black"/>
<path d="M77.1136 107.481C76.6756 107.481 76.223 107.043 76.223 106.591V99.2031H66.9229V106.591C66.9229 107.029 66.4849 107.481 66.0323 107.481C65.5797 107.481 65.1417 107.043 65.1417 106.591V98.3271C65.1417 97.8891 65.5797 97.4365 66.0323 97.4365H77.1136C77.5516 97.4365 78.0042 97.8745 78.0042 98.3271V106.591C78.0042 107.029 77.5662 107.481 77.1136 107.481Z" fill="black"/>
<path d="M80.8074 113.103H62.3532C60.2801 113.103 58.6595 111.483 58.6595 109.41C58.6595 108.373 59.0975 107.482 59.6961 106.752C60.4407 106.008 61.3167 105.716 62.3532 105.716H80.8074C82.8806 105.716 84.5012 107.336 84.5012 109.41C84.5012 110.446 84.0632 111.322 83.4646 112.067C82.574 112.665 81.698 113.103 80.8074 113.103ZM62.3386 107.482C61.9006 107.482 61.4481 107.628 61.0101 108.066C60.7181 108.358 60.4261 108.957 60.4261 109.395C60.4261 110.432 61.3167 111.308 62.3386 111.308H80.7928C81.2308 111.308 81.6834 111.162 82.1214 110.724C82.4134 110.432 82.7054 109.833 82.7054 109.395C82.7054 108.358 81.8148 107.468 80.7928 107.468H62.3386V107.482Z" fill="black"/>
<path d="M103.846 108.372C100.751 108.372 98.2396 105.861 98.2396 102.766C98.2396 99.6704 100.751 97.1592 103.846 97.1592C106.941 97.1592 109.452 99.6704 109.452 102.766C109.306 105.861 106.795 108.372 103.846 108.372ZM103.846 99.2178C101.773 99.2178 100.152 100.838 100.152 102.912C100.152 104.985 101.773 106.605 103.846 106.605C105.919 106.605 107.54 104.985 107.54 102.912C107.54 100.838 105.919 99.2178 103.846 99.2178Z" fill="black"/>
<path d="M42.8478 113.102C39.3001 113.102 36.3509 110.153 36.3509 106.605C36.3509 103.058 39.3001 100.108 42.8478 100.108C46.3956 100.108 49.3447 103.058 49.3447 106.605C49.3447 110.153 46.3956 113.102 42.8478 113.102ZM42.8478 102.021C40.3366 102.021 38.2635 104.094 38.2635 106.605C38.2635 109.116 40.3366 111.19 42.8478 111.19C45.359 111.19 47.4322 109.116 47.4322 106.605C47.4322 104.094 45.359 102.021 42.8478 102.021Z" fill="black"/>
<path d="M86.2677 76.1788H56.7322C56.2942 76.1788 55.8416 75.7409 55.8416 75.2883V41.9131C55.8416 41.4751 56.2796 41.0225 56.7322 41.0225H86.2677C86.7057 41.0225 87.1583 41.4605 87.1583 41.9131V75.1423C87.1583 75.7263 86.7203 76.1788 86.2677 76.1788ZM57.6228 74.2517H85.3917V42.9496H57.6228V74.2663V74.2517Z" fill="black"/>
<path d="M79.7708 48.4106C79.3328 48.4106 78.8802 47.9726 78.8802 47.52V36.4387C78.7342 34.8181 77.9897 33.1829 76.8071 32.0004C75.4785 30.6718 73.5513 29.7812 71.6387 29.7812C67.799 29.7812 64.7038 32.5843 64.2512 36.2781V47.3594C64.2512 47.7974 63.8132 48.25 63.3606 48.25C62.908 48.25 62.47 47.812 62.47 47.3594V36.2781C62.908 31.5478 66.8938 28 71.6241 28C74.1353 28 76.3545 29.0366 78.121 30.6572C79.5956 32.1318 80.4862 34.0589 80.7782 36.1175V47.3448C80.7782 47.9288 80.3402 48.3814 79.7416 48.3814L79.7708 48.4106Z" fill="black"/>
<path d="M81.698 48.4101H78.0042C77.5662 48.4101 77.1136 47.9721 77.1136 47.5195C77.1136 47.0669 77.5516 46.6289 78.0042 46.6289H81.698C82.136 46.6289 82.5886 47.0669 82.5886 47.5195C82.5886 47.9721 82.1506 48.4101 81.698 48.4101Z" fill="black"/>
<path d="M64.9957 48.4101H61.302C60.864 48.4101 60.4114 47.9721 60.4114 47.5195C60.4114 47.0669 60.8494 46.6289 61.302 46.6289H64.9957C65.4337 46.6289 65.8863 47.0669 65.8863 47.5195C66.0323 47.9575 65.5943 48.4101 64.9957 48.4101Z" fill="black"/>
<path d="M71.5073 76.18C71.2153 76.18 71.0693 76.034 70.9233 75.888C70.6313 75.596 70.6313 74.9975 70.9233 74.5595L85.6984 59.7844C85.9904 59.4924 86.589 59.4924 87.027 59.7844C87.319 60.0764 87.319 60.675 87.027 61.113L72.2519 75.888C71.9599 76.034 71.8139 76.18 71.5073 76.18Z" fill="black"/>
<path d="M64.9959 76.1789C64.7039 76.1789 64.5579 76.0329 64.4119 75.8869C64.1199 75.5949 64.1199 74.9963 64.4119 74.5583L85.6838 53.2864C85.9758 52.9944 86.5744 52.9944 87.0124 53.2864C87.3044 53.5784 87.3044 54.177 87.0124 54.615L65.7405 75.8869C65.4485 76.0329 65.3025 76.1789 64.9959 76.1789Z" fill="black"/>
<path d="M106.649 59.4911H99.2616C98.8236 59.4911 98.371 59.0531 98.371 58.6006C98.371 58.148 98.809 57.71 99.2616 57.71H106.649C107.087 57.71 107.54 58.148 107.54 58.6006C107.54 59.0531 107.102 59.4911 106.649 59.4911Z" fill="black"/>
<path d="M106.649 65.0986H99.2616C98.8236 65.0986 98.371 64.6606 98.371 64.208C98.371 63.7554 98.809 63.3174 99.2616 63.3174H106.649C107.087 63.3174 107.54 63.7554 107.54 64.208C107.54 64.6606 107.102 65.0986 106.649 65.0986Z" fill="black"/>
<path d="M106.649 70.5585H99.2616C98.8236 70.5585 98.371 70.1205 98.371 69.6679C98.371 69.2153 98.809 68.7773 99.2616 68.7773H106.649C107.087 68.7773 107.54 69.2153 107.54 69.6679C107.54 70.1205 107.102 70.5585 106.649 70.5585Z" fill="black"/>
<path d="M106.649 76.1796H99.2616C98.8236 76.1796 98.371 75.7416 98.371 75.289C98.371 74.8364 98.809 74.3984 99.2616 74.3984H106.649C107.087 74.3984 107.54 74.8364 107.54 75.289C107.54 75.7416 107.102 76.1796 106.649 76.1796Z" fill="black"/>
<path d="M43.8845 59.4911H36.497C36.059 59.4911 35.6064 59.0531 35.6064 58.6006C35.6064 58.148 36.0444 57.71 36.497 57.71H43.8845C44.3225 57.71 44.7751 58.148 44.7751 58.6006C44.7751 59.0531 44.3371 59.4911 43.8845 59.4911Z" fill="black"/>
<path d="M43.8845 65.0986H36.497C36.059 65.0986 35.6064 64.6606 35.6064 64.208C35.6064 63.7554 36.0444 63.3174 36.497 63.3174H43.8845C44.3225 63.3174 44.7751 63.7554 44.7751 64.208C44.7751 64.6606 44.3371 65.0986 43.8845 65.0986Z" fill="black"/>
<path d="M43.8845 70.5585H36.497C36.059 70.5585 35.6064 70.1205 35.6064 69.6679C35.6064 69.2153 36.0444 68.7773 36.497 68.7773H43.8845C44.3225 68.7773 44.7751 69.2153 44.7751 69.6679C44.7751 70.1205 44.3371 70.5585 43.8845 70.5585Z" fill="black"/>
<path d="M43.8845 76.1796H36.497C36.059 76.1796 35.6064 75.7416 35.6064 75.289C35.6064 74.8364 36.0444 74.3984 36.497 74.3984H43.8845C44.3225 74.3984 44.7751 74.8364 44.7751 75.289C44.7751 75.7416 44.3371 76.1796 43.8845 76.1796Z" fill="black"/>
</svg>
