<svg width="1795" height="184" viewBox="0 0 1795 184" fill="none" xmlns="http://www.w3.org/2000/svg">
<path opacity="0.5" d="M66.5762 140V141H67.5762V140H66.5762ZM31.8594 140H30.8594V141H31.8594V140ZM31.8594 39.8926H32.8594V38.8926H31.8594V39.8926ZM0.482422 39.8926H-0.517578V40.8926H0.482422V39.8926ZM0.482422 11.5039V10.5039H-0.517578V11.5039H0.482422ZM97.8652 11.5039H98.8652V10.5039H97.8652V11.5039ZM97.8652 39.8926V40.8926H98.8652V39.8926H97.8652ZM66.5762 39.8926V38.8926H65.5762V39.8926H66.5762ZM66.5762 139H31.8594V141H66.5762V139ZM32.8594 140V39.8926H30.8594V140H32.8594ZM31.8594 38.8926H0.482422V40.8926H31.8594V38.8926ZM1.48242 39.8926V11.5039H-0.517578V39.8926H1.48242ZM0.482422 12.5039H97.8652V10.5039H0.482422V12.5039ZM96.8652 11.5039V39.8926H98.8652V11.5039H96.8652ZM97.8652 38.8926H66.5762V40.8926H97.8652V38.8926ZM65.5762 39.8926V140H67.5762V39.8926H65.5762ZM184.086 43.7598L183.651 44.6601L183.657 44.663L184.086 43.7598ZM206.059 99.4824V100.482H207.059V99.4824H206.059ZM144.623 99.4824V98.4824H143.565L143.625 99.5385L144.623 99.4824ZM150.424 112.314L149.741 113.045L149.747 113.051L150.424 112.314ZM183.471 115.479L183.241 114.505L183.239 114.506L183.471 115.479ZM199.555 109.766H200.555V108.193L199.131 108.86L199.555 109.766ZM199.555 134.463L200.019 135.349L200.555 135.068V134.463H199.555ZM116.674 119.785L115.817 120.301L115.82 120.306L116.674 119.785ZM116.059 61.4258L116.941 61.8971L116.942 61.8943L116.059 61.4258ZM133.285 44.2871L133.732 45.1816L133.738 45.1787L133.285 44.2871ZM150.072 65.9082L150.755 66.6387L150.756 66.6382L150.072 65.9082ZM145.326 77.8613L144.33 77.7756L144.236 78.8613H145.326V77.8613ZM174.857 77.8613V78.8613H175.878L175.857 77.8413L174.857 77.8613ZM168.178 64.1504L167.623 64.9825L167.634 64.9893L168.178 64.1504ZM159.037 39.6621C168.589 39.6621 176.784 41.341 183.651 44.6601L184.521 42.8594C177.326 39.3817 168.821 37.6621 159.037 37.6621V39.6621ZM183.657 44.663C190.503 47.9151 195.768 52.8111 199.475 59.369L201.216 58.3849C197.306 51.4663 191.731 46.2841 184.515 42.8565L183.657 44.663ZM199.475 59.369C203.177 65.9177 205.059 74.1733 205.059 84.1895H207.059C207.059 73.9321 205.132 65.3128 201.216 58.3849L199.475 59.369ZM205.059 84.1895V99.4824H207.059V84.1895H205.059ZM206.059 98.4824H144.623V100.482H206.059V98.4824ZM143.625 99.5385C143.931 104.991 145.965 109.517 149.741 113.045L151.107 111.584C147.734 108.432 145.901 104.403 145.621 99.4263L143.625 99.5385ZM149.747 113.051C153.63 116.62 159.244 118.324 166.42 118.324V116.324C159.533 116.324 154.483 114.688 151.101 111.578L149.747 113.051ZM166.42 118.324C172.696 118.324 178.459 117.703 183.703 116.451L183.239 114.506C178.17 115.715 172.566 116.324 166.42 116.324V118.324ZM183.7 116.452C188.99 115.204 194.417 113.275 199.979 110.671L199.131 108.86C193.677 111.413 188.381 113.293 183.241 114.505L183.7 116.452ZM198.555 109.766V134.463H200.555V109.766H198.555ZM199.09 133.577C194.374 136.051 189.219 137.866 183.62 139.021L184.024 140.979C189.793 139.79 195.126 137.914 200.019 135.349L199.09 133.577ZM183.62 139.021C178.027 140.174 170.923 140.758 162.289 140.758V142.758C170.999 142.758 178.25 142.17 184.024 140.979L183.62 139.021ZM162.289 140.758C152.39 140.758 143.569 138.993 135.806 135.485L134.983 137.308C143.041 140.949 152.149 142.758 162.289 142.758V140.758ZM135.806 135.485C128.082 131.995 121.995 126.595 117.528 119.265L115.82 120.306C120.494 127.975 126.887 133.65 134.983 137.308L135.806 135.485ZM117.531 119.27C113.14 111.97 110.906 102.526 110.906 90.8691H108.906C108.906 102.767 111.185 112.6 115.817 120.301L117.531 119.27ZM110.906 90.8691C110.906 79.022 112.94 69.3839 116.941 61.8971L115.177 60.9545C110.974 68.8193 108.906 78.81 108.906 90.8691H110.906ZM116.942 61.8943C120.952 54.332 126.547 48.774 133.732 45.1815L132.838 43.3927C125.257 47.183 119.368 53.0508 115.175 60.9573L116.942 61.8943ZM133.738 45.1787C140.957 41.5118 149.381 39.6621 159.037 39.6621V37.6621C149.123 37.6621 140.379 39.5624 132.832 43.3955L133.738 45.1787ZM160.268 61.041C155.991 61.041 152.342 62.4134 149.389 65.1782L150.756 66.6382C153.31 64.2467 156.458 63.041 160.268 63.041V61.041ZM149.389 65.1777C146.443 67.9316 144.81 72.1963 144.33 77.7756L146.322 77.947C146.78 72.6279 148.311 68.9239 150.755 66.6387L149.389 65.1777ZM145.326 78.8613H174.857V76.8613H145.326V78.8613ZM175.857 77.8413C175.796 74.788 175.184 71.9836 174.007 69.4428L172.192 70.2837C173.241 72.5476 173.801 75.0752 173.858 77.8813L175.857 77.8413ZM174.007 69.4428C172.816 66.874 171.052 64.8228 168.722 63.3114L167.634 64.9893C169.639 66.2905 171.156 68.0479 172.192 70.2837L174.007 69.4428ZM168.732 63.3183C166.422 61.7782 163.58 61.041 160.268 61.041V63.041C163.283 63.041 165.714 63.7101 167.623 64.9824L168.732 63.3183ZM244.555 136.396L244.116 137.295L244.122 137.298L244.555 136.396ZM227.24 119.697L226.358 120.169L226.363 120.177L227.24 119.697ZM227.943 61.0742L227.084 60.5626L227.081 60.5675L227.943 61.0742ZM290.873 40.6836L290.633 41.6544L290.635 41.6549L290.873 40.6836ZM306.166 46.2207L307.095 46.5904L307.435 45.737L306.613 45.3263L306.166 46.2207ZM296.059 71.6211L295.654 72.5354L296.604 72.9561L296.988 71.9908L296.059 71.6211ZM284.545 67.3145L284.243 68.2678L284.252 68.2708L284.262 68.2736L284.545 67.3145ZM258.266 76.6309L259.193 77.0048L259.195 76.9997L258.266 76.6309ZM258.266 104.404L257.342 104.789L257.348 104.802L258.266 104.404ZM264.506 112.051L263.991 112.908L264 112.913L264.506 112.051ZM288.588 112.139L288.884 113.094L288.891 113.092L288.588 112.139ZM302.738 105.635H303.738V103.841L302.212 104.784L302.738 105.635ZM302.738 132.969L303.287 133.804L303.738 133.508V132.969H302.738ZM270.834 140.758C260.873 140.758 252.267 138.992 244.988 135.495L244.122 137.298C251.725 140.95 260.638 142.758 270.834 142.758V140.758ZM244.993 135.498C237.744 131.959 232.123 126.542 228.118 119.217L226.363 120.177C230.56 127.852 236.482 133.568 244.116 137.295L244.993 135.498ZM228.122 119.226C224.18 111.856 222.176 102.365 222.176 90.6934H220.176C220.176 102.577 222.214 112.421 226.358 120.169L228.122 119.226ZM222.176 90.6934C222.176 78.7402 224.411 69.0579 228.805 61.5809L227.081 60.5675C222.453 68.4421 220.176 78.5059 220.176 90.6934H222.176ZM228.803 61.5858C233.272 54.0793 239.36 48.566 247.081 45.0201L246.247 43.2026C238.147 46.9223 231.755 52.7176 227.084 60.5626L228.803 61.5858ZM247.081 45.0201C254.842 41.4558 263.661 39.6621 273.559 39.6621V37.6621C263.417 37.6621 254.306 39.5012 246.247 43.2026L247.081 45.0201ZM273.559 39.6621C279.578 39.6621 285.269 40.3277 290.633 41.6544L291.113 39.7128C285.579 38.3442 279.726 37.6621 273.559 37.6621V39.6621ZM290.635 41.6549C296.077 42.9863 301.103 44.8074 305.719 47.1151L306.613 45.3263C301.854 42.9465 296.685 41.0762 291.111 39.7122L290.635 41.6549ZM305.237 45.851L295.129 71.2514L296.988 71.9908L307.095 46.5904L305.237 45.851ZM296.464 70.7067C292.33 68.8762 288.451 67.4245 284.828 66.3553L284.262 68.2736C287.787 69.3138 291.584 70.7332 295.654 72.5354L296.464 70.7067ZM284.847 66.3611C281.23 65.2159 277.466 64.6445 273.559 64.6445V66.6445C277.268 66.6445 280.828 67.1864 284.243 68.2678L284.847 66.3611ZM273.559 64.6445C269.916 64.6445 266.668 65.605 263.851 67.5456L264.985 69.1926C267.442 67.5005 270.287 66.6445 273.559 66.6445V64.6445ZM263.851 67.5456C261.015 69.4988 258.856 72.431 257.336 76.262L259.195 76.9997C260.605 73.4479 262.547 70.8723 264.985 69.1926L263.851 67.5456ZM257.338 76.2569C255.809 80.0484 255.068 84.8158 255.068 90.5176H257.068C257.068 84.9694 257.792 80.479 259.193 77.0048L257.338 76.2569ZM255.068 90.5176C255.068 96.3312 255.808 101.106 257.343 104.789L259.189 104.02C257.794 100.672 257.068 96.1883 257.068 90.5176H255.068ZM257.348 104.802C258.934 108.462 261.136 111.195 263.991 112.908L265.02 111.193C262.603 109.743 260.644 107.378 259.183 104.007L257.348 104.802ZM264 112.913C266.864 114.595 270.119 115.424 273.734 115.424V113.424C270.436 113.424 267.538 112.671 265.012 111.188L264 112.913ZM273.734 115.424C278.819 115.424 283.869 114.646 288.884 113.094L288.292 111.183C283.463 112.678 278.611 113.424 273.734 113.424V115.424ZM288.891 113.092C293.95 111.485 298.741 109.282 303.264 106.485L302.212 104.784C297.829 107.495 293.187 109.628 288.285 111.186L288.891 113.092ZM301.738 105.635V132.969H303.738V105.635H301.738ZM302.189 132.133C298.174 134.771 293.633 136.872 288.558 138.429L289.145 140.341C294.383 138.734 299.099 136.557 303.287 133.804L302.189 132.133ZM288.558 138.429C283.519 139.975 277.616 140.758 270.834 140.758V142.758C277.763 142.758 283.872 141.959 289.145 140.341L288.558 138.429ZM419.721 140V141H420.721V140H419.721ZM385.355 140H384.355V141H385.355V140ZM382.455 70.7422L381.579 71.2253L381.584 71.2343L381.59 71.2432L382.455 70.7422ZM360.219 73.6426L361.14 74.0316L361.142 74.0279L360.219 73.6426ZM356.879 140V141H357.879V140H356.879ZM322.514 140H321.514V141H322.514V140ZM322.514 40.4199V39.4199H321.514V40.4199H322.514ZM348.441 40.4199L349.384 40.0868L349.149 39.4199H348.441V40.4199ZM353.1 53.6035L352.157 53.9367L352.392 54.6035H353.1V53.6035ZM354.418 53.6035V54.6035H354.953L355.25 54.1582L354.418 53.6035ZM384.828 39.6621C394.882 39.6621 403.01 42.5004 409.299 48.1096L410.63 46.617C403.912 40.6246 395.282 37.6621 384.828 37.6621V39.6621ZM409.299 48.1096C415.507 53.6463 418.721 62.6014 418.721 75.2246H420.721C420.721 62.3009 417.43 52.6818 410.63 46.617L409.299 48.1096ZM418.721 75.2246V140H420.721V75.2246H418.721ZM419.721 139H385.355V141H419.721V139ZM386.355 140V85.6836H384.355V140H386.355ZM386.355 85.6836C386.355 78.9969 385.385 73.8065 383.32 70.2411L381.59 71.2432C383.393 74.3575 384.355 79.1281 384.355 85.6836H386.355ZM383.331 70.2591C381.262 66.5091 377.859 64.6445 373.314 64.6445V66.6445C377.208 66.6445 379.898 68.1784 381.579 71.2253L383.331 70.2591ZM373.314 64.6445C369.928 64.6445 367.018 65.339 364.641 66.7906C362.256 68.2474 360.479 70.4231 359.296 73.2572L361.142 74.0279C362.185 71.53 363.704 69.7067 365.684 68.4975C367.672 67.2831 370.197 66.6445 373.314 66.6445V64.6445ZM359.297 73.2536C356.994 78.7088 355.879 86.4536 355.879 96.4062H357.879C357.879 86.5542 358.99 79.1232 361.14 74.0315L359.297 73.2536ZM355.879 96.4062V140H357.879V96.4062H355.879ZM356.879 139H322.514V141H356.879V139ZM323.514 140V40.4199H321.514V140H323.514ZM322.514 41.4199H348.441V39.4199H322.514V41.4199ZM347.499 40.7531L352.157 53.9367L354.042 53.2704L349.384 40.0868L347.499 40.7531ZM353.1 54.6035H354.418V52.6035H353.1V54.6035ZM355.25 54.1582C357.3 51.0836 359.743 48.4708 362.582 46.3137L361.371 44.7214C358.35 47.0175 355.755 49.7953 353.586 53.0488L355.25 54.1582ZM362.582 46.3137C365.41 44.1639 368.672 42.5159 372.378 41.3757L371.79 39.4641C367.878 40.6677 364.402 42.4181 361.371 44.7214L362.582 46.3137ZM372.378 41.3757C376.076 40.2378 380.223 39.6621 384.828 39.6621V37.6621C380.058 37.6621 375.709 38.2583 371.79 39.4641L372.378 41.3757ZM509.105 138.418L509.446 139.358L509.454 139.355L509.105 138.418ZM468.412 138.418L468.055 139.352L468.066 139.356L468.412 138.418ZM442.396 112.139L441.459 112.488L441.462 112.495L442.396 112.139ZM444.77 62.041L443.886 61.5722L443.883 61.5775L444.77 62.041ZM461.996 44.6387L461.527 43.7556L461.524 43.7571L461.996 44.6387ZM531.781 62.041L530.906 62.5255L530.909 62.5306L531.781 62.041ZM475.18 104.404L474.21 104.65L474.211 104.654L475.18 104.404ZM479.926 113.281L479.239 114.008L479.249 114.017L479.259 114.026L479.926 113.281ZM497.152 113.281L497.839 114.008L497.844 114.003L497.849 113.998L497.152 113.281ZM501.723 104.404L500.753 104.158L500.751 104.169L501.723 104.404ZM501.723 75.752L500.752 75.991L500.753 75.998L500.755 76.005L501.723 75.752ZM497.064 67.1387L496.389 67.8759L496.399 67.885L497.064 67.1387ZM477.113 70.7422L476.234 70.2666L476.229 70.2759L477.113 70.7422ZM537.197 89.9902C537.197 98.2206 536.067 105.487 533.827 111.805L535.712 112.473C538.042 105.9 539.197 98.4005 539.197 89.9902H537.197ZM533.827 111.805C531.586 118.127 528.348 123.417 524.126 127.696L525.55 129.101C529.999 124.591 533.383 119.041 535.712 112.473L533.827 111.805ZM524.126 127.696C519.899 131.98 514.781 135.243 508.757 137.481L509.454 139.355C515.734 137.023 521.105 133.606 525.55 129.101L524.126 127.696ZM508.765 137.478C502.74 139.658 495.914 140.758 488.275 140.758V142.758C496.105 142.758 503.166 141.631 509.446 139.358L508.765 137.478ZM488.275 140.758C481.172 140.758 474.67 139.661 468.758 137.48L468.066 139.356C474.224 141.628 480.964 142.758 488.275 142.758V140.758ZM468.769 137.484C462.919 135.247 457.822 131.982 453.47 127.687L452.065 129.11C456.619 133.604 461.952 137.019 468.055 139.352L468.769 137.484ZM453.47 127.687C449.129 123.402 445.746 118.108 443.331 111.782L441.462 112.495C443.969 119.06 447.5 124.605 452.065 129.11L453.47 127.687ZM443.334 111.789C440.981 105.477 439.793 98.2156 439.793 89.9902H437.793C437.793 98.4055 439.008 105.91 441.459 112.488L443.334 111.789ZM439.793 89.9902C439.793 79.0919 441.764 69.9441 445.656 62.5045L443.883 61.5775C439.806 69.3723 437.793 78.8573 437.793 89.9902H439.793ZM445.653 62.5098C449.605 55.064 455.206 49.4088 462.468 45.5203L461.524 43.7571C453.904 47.8373 448.02 53.7837 443.886 61.5722L445.653 62.5098ZM462.465 45.5218C469.792 41.6294 478.559 39.6621 488.803 39.6621V37.6621C478.304 37.6621 469.2 39.6792 461.527 43.7556L462.465 45.5218ZM488.803 39.6621C498.211 39.6621 506.541 41.6234 513.819 45.5203L514.763 43.7571C507.158 39.6852 498.496 37.6621 488.803 37.6621V39.6621ZM513.819 45.5203C521.085 49.4108 526.778 55.0711 530.906 62.5255L532.656 61.5565C528.347 53.7766 522.38 47.8353 514.763 43.7571L513.819 45.5203ZM530.909 62.5306C535.083 69.9641 537.197 79.1021 537.197 89.9902H539.197C539.197 78.8471 537.034 69.3523 532.653 61.5514L530.909 62.5306ZM472.686 89.9902C472.686 95.7262 473.188 100.619 474.21 104.65L476.149 104.158C475.18 100.338 474.686 95.6214 474.686 89.9902H472.686ZM474.211 104.654C475.239 108.643 476.895 111.791 479.239 114.008L480.613 112.555C478.621 110.67 477.113 107.9 476.148 104.155L474.211 104.654ZM479.259 114.026C481.704 116.214 484.858 117.27 488.627 117.27V115.27C485.248 115.27 482.601 114.333 480.593 112.536L479.259 114.026ZM488.627 117.27C492.394 117.27 495.503 116.214 497.839 114.008L496.466 112.554C494.583 114.333 492.008 115.27 488.627 115.27V117.27ZM497.849 113.998C500.134 111.777 501.728 108.628 502.695 104.64L500.751 104.169C499.843 107.915 498.39 110.683 496.455 112.564L497.849 113.998ZM502.692 104.65C503.715 100.619 504.217 95.7262 504.217 89.9902H502.217C502.217 95.6214 501.723 100.338 500.753 104.158L502.692 104.65ZM504.217 89.9902C504.217 84.2555 503.715 79.4177 502.69 75.4989L500.755 76.005C501.722 79.7034 502.217 84.3578 502.217 89.9902H504.217ZM502.694 75.5129C501.724 71.5755 500.093 68.5 497.73 66.3924L496.399 67.885C498.372 69.6445 499.846 72.3112 500.752 75.991L502.694 75.5129ZM497.74 66.4015C495.401 64.2569 492.264 63.2383 488.451 63.2383V65.2383C491.904 65.2383 494.51 66.1533 496.389 67.8758L497.74 66.4015ZM488.451 63.2383C485.704 63.2383 483.276 63.8103 481.208 64.9968C479.137 66.1851 477.482 67.9571 476.234 70.2667L477.993 71.2177C479.088 69.1913 480.495 67.7114 482.203 66.7317C483.914 65.7502 485.984 65.2383 488.451 65.2383V63.2383ZM476.229 70.2759C473.831 74.8253 472.686 81.4348 472.686 89.9902H474.686C474.686 81.5535 475.825 75.3309 477.998 71.2084L476.229 70.2759ZM592.25 140V141H593.25V140H592.25ZM557.885 140H556.885V141H557.885V140ZM557.885 3.24219V2.24219H556.885V3.24219H557.885ZM592.25 3.24219H593.25V2.24219H592.25V3.24219ZM592.25 139H557.885V141H592.25V139ZM558.885 140V3.24219H556.885V140H558.885ZM557.885 4.24219H592.25V2.24219H557.885V4.24219ZM591.25 3.24219V140H593.25V3.24219H591.25ZM682.074 138.418L682.415 139.358L682.422 139.355L682.074 138.418ZM641.381 138.418L641.024 139.352L641.035 139.356L641.381 138.418ZM615.365 112.139L614.428 112.488L614.431 112.495L615.365 112.139ZM617.738 62.041L616.855 61.5722L616.852 61.5775L617.738 62.041ZM634.965 44.6387L634.496 43.7556L634.493 43.7571L634.965 44.6387ZM704.75 62.041L703.875 62.5255L703.878 62.5306L704.75 62.041ZM648.148 104.404L647.179 104.65L647.18 104.654L648.148 104.404ZM652.895 113.281L652.207 114.008L652.217 114.017L652.228 114.026L652.895 113.281ZM670.121 113.281L670.808 114.008L670.813 114.003L670.818 113.998L670.121 113.281ZM674.691 104.404L673.722 104.158L673.72 104.169L674.691 104.404ZM674.691 75.752L673.72 75.991L673.722 75.998L673.724 76.005L674.691 75.752ZM670.033 67.1387L669.357 67.8759L669.368 67.885L670.033 67.1387ZM650.082 70.7422L649.202 70.2666L649.197 70.2759L650.082 70.7422ZM710.166 89.9902C710.166 98.2206 709.036 105.487 706.796 111.805L708.681 112.473C711.011 105.9 712.166 98.4005 712.166 89.9902H710.166ZM706.796 111.805C704.554 118.127 701.317 123.417 697.095 127.696L698.518 129.101C702.968 124.591 706.352 119.041 708.681 112.473L706.796 111.805ZM697.095 127.696C692.868 131.98 687.75 135.243 681.726 137.481L682.422 139.355C688.703 137.023 694.074 133.606 698.518 129.101L697.095 127.696ZM681.734 137.478C675.709 139.658 668.883 140.758 661.244 140.758V142.758C669.074 142.758 676.135 141.631 682.415 139.358L681.734 137.478ZM661.244 140.758C654.141 140.758 647.639 139.661 641.727 137.48L641.035 139.356C647.193 141.628 653.933 142.758 661.244 142.758V140.758ZM641.738 137.484C635.888 135.247 630.791 131.982 626.439 127.687L625.034 129.11C629.588 133.604 634.921 137.019 641.024 139.352L641.738 137.484ZM626.439 127.687C622.097 123.402 618.715 118.108 616.299 111.782L614.431 112.495C616.938 119.06 620.469 124.605 625.034 129.11L626.439 127.687ZM616.302 111.789C613.949 105.477 612.762 98.2156 612.762 89.9902H610.762C610.762 98.4055 611.977 105.91 614.428 112.488L616.302 111.789ZM612.762 89.9902C612.762 79.0919 614.733 69.9441 618.624 62.5045L616.852 61.5775C612.775 69.3723 610.762 78.8573 610.762 89.9902H612.762ZM618.622 62.5098C622.574 55.064 628.174 49.4088 635.437 45.5203L634.493 43.7571C626.872 47.8373 620.989 53.7837 616.855 61.5722L618.622 62.5098ZM635.434 45.5218C642.761 41.6294 651.528 39.6621 661.771 39.6621V37.6621C651.273 37.6621 642.169 39.6792 634.496 43.7556L635.434 45.5218ZM661.771 39.6621C671.18 39.6621 679.51 41.6234 686.788 45.5203L687.732 43.7571C680.127 39.6852 671.465 37.6621 661.771 37.6621V39.6621ZM686.788 45.5203C694.054 49.4108 699.747 55.0711 703.875 62.5255L705.625 61.5565C701.316 53.7766 695.348 47.8353 687.732 43.7571L686.788 45.5203ZM703.878 62.5306C708.052 69.9641 710.166 79.1021 710.166 89.9902H712.166C712.166 78.8471 710.002 69.3523 705.622 61.5514L703.878 62.5306ZM645.654 89.9902C645.654 95.7262 646.156 100.619 647.179 104.65L649.118 104.158C648.148 100.338 647.654 95.6214 647.654 89.9902H645.654ZM647.18 104.654C648.208 108.643 649.864 111.791 652.207 114.008L653.582 112.555C651.589 110.67 650.081 107.9 649.117 104.155L647.18 104.654ZM652.228 114.026C654.672 116.214 657.826 117.27 661.596 117.27V115.27C658.217 115.27 655.57 114.333 653.561 112.536L652.228 114.026ZM661.596 117.27C665.363 117.27 668.472 116.214 670.808 114.008L669.434 112.554C667.552 114.333 664.977 115.27 661.596 115.27V117.27ZM670.818 113.998C673.102 111.777 674.697 108.628 675.663 104.64L673.72 104.169C672.811 107.915 671.359 110.683 669.424 112.564L670.818 113.998ZM675.661 104.65C676.684 100.619 677.186 95.7262 677.186 89.9902H675.186C675.186 95.6214 674.691 100.338 673.722 104.158L675.661 104.65ZM677.186 89.9902C677.186 84.2555 676.684 79.4177 675.659 75.4989L673.724 76.005C674.691 79.7034 675.186 84.3578 675.186 89.9902H677.186ZM675.662 75.5129C674.693 71.5755 673.062 68.5 670.699 66.3924L669.368 67.885C671.34 69.6445 672.815 72.3112 673.72 75.991L675.662 75.5129ZM670.709 66.4015C668.369 64.2569 665.233 63.2383 661.42 63.2383V65.2383C664.872 65.2383 667.478 66.1533 669.357 67.8758L670.709 66.4015ZM661.42 63.2383C658.672 63.2383 656.245 63.8103 654.177 64.9968C652.105 66.1851 650.451 67.9571 649.202 70.2667L650.962 71.2177C652.057 69.1913 653.464 67.7114 655.172 66.7317C656.883 65.7502 658.953 65.2383 661.42 65.2383V63.2383ZM649.197 70.2759C646.8 74.8253 645.654 81.4348 645.654 89.9902H647.654C647.654 81.5535 648.794 75.3309 650.967 71.2084L649.197 70.2759ZM732.172 176.123L732.698 175.273L732.696 175.271L732.172 176.123ZM742.895 132.793L743.119 133.767L746.128 133.075L743.284 131.872L742.895 132.793ZM734.896 126.553L734.106 127.166L734.114 127.175L734.896 126.553ZM734.105 109.854L734.915 110.441L734.922 110.431L734.105 109.854ZM744.74 101.328L745.26 102.182L746.893 101.188L745.145 100.414L744.74 101.328ZM732.523 90.6055L731.667 91.1215L731.671 91.129L732.523 90.6055ZM733.051 54.3945L732.214 53.8465L732.21 53.8533L733.051 54.3945ZM747.553 42.7051L747.164 41.7838L747.161 41.7851L747.553 42.7051ZM776.469 39.0137L776.376 40.0094L776.388 40.0104L776.399 40.0112L776.469 39.0137ZM784.115 39.7168L784.002 40.7104L784.013 40.7117L784.025 40.7127L784.115 39.7168ZM790.092 40.4199L789.927 41.4063L790.009 41.4199H790.092V40.4199ZM824.809 40.4199H825.809V39.4199H824.809V40.4199ZM824.809 57.0312L825.154 57.9698L825.809 57.729V57.0312H824.809ZM811.186 62.041L810.84 61.1025L809.747 61.5044L810.31 62.5241L811.186 62.041ZM802.66 98.8672L802.044 98.0798L802.041 98.0822L802.66 98.8672ZM760.209 107.041L760.42 106.064L759.685 105.905L759.328 106.567L760.209 107.041ZM759.242 109.326L758.286 109.032L758.279 109.058L758.272 109.084L759.242 109.326ZM761.352 114.6L760.891 115.487L760.911 115.497L760.93 115.507L761.352 114.6ZM767.24 116.182L767.113 117.174L767.116 117.174L767.24 116.182ZM808.373 173.135L807.828 172.296L807.826 172.298L808.373 173.135ZM779.105 160.654L778.941 159.668L778.928 159.67L779.105 160.654ZM791.498 145.977L792.025 145.127L792.015 145.12L792.004 145.114L791.498 145.977ZM756.254 144.57L755.906 143.633L755.889 143.639L755.873 143.646L756.254 144.57ZM754.32 159.16L754.82 158.294L754.814 158.29L754.807 158.287L754.32 159.16ZM778.754 84.541L777.943 83.9562L777.938 83.9625L777.934 83.9688L778.754 84.541ZM763.197 61.6016L764.017 62.1738L764.023 62.1649L763.197 61.6016ZM763.197 84.541L762.371 85.1044L762.377 85.1132L763.197 84.541ZM764.867 182.242C750.836 182.242 740.15 179.88 732.698 175.273L731.646 176.974C739.545 181.858 750.656 184.242 764.867 184.242V182.242ZM732.696 175.271C725.371 170.763 721.746 164.316 721.746 155.82H719.746C719.746 165.02 723.739 172.108 731.648 176.975L732.696 175.271ZM721.746 155.82C721.746 150.13 723.512 145.494 727.007 141.833L725.56 140.452C721.671 144.526 719.746 149.675 719.746 155.82H721.746ZM727.007 141.833C730.518 138.155 735.85 135.44 743.119 133.767L742.67 131.818C735.173 133.544 729.432 136.396 725.56 140.452L727.007 141.833ZM743.284 131.872C740.407 130.655 737.872 128.685 735.679 125.93L734.114 127.175C736.492 130.163 739.288 132.353 742.505 133.714L743.284 131.872ZM735.687 125.94C733.556 123.193 732.557 120.56 732.557 118.027H730.557C730.557 121.119 731.784 124.171 734.106 127.166L735.687 125.94ZM732.557 118.027C732.557 115.116 733.349 112.601 734.915 110.44L733.296 109.267C731.464 111.794 730.557 114.727 730.557 118.027H732.557ZM734.922 110.431C736.494 108.209 739.883 105.455 745.26 102.182L744.22 100.474C738.816 103.763 735.116 106.694 733.289 109.276L734.922 110.431ZM745.145 100.414C740.177 98.2118 736.259 94.775 733.375 90.0819L731.671 91.129C734.764 96.1625 738.991 99.8741 744.335 102.242L745.145 100.414ZM733.38 90.0895C730.563 85.4139 729.129 79.6837 729.129 72.8516H727.129C727.129 79.9647 728.624 86.0704 731.667 91.1215L733.38 90.0895ZM729.129 72.8516C729.129 65.7997 730.733 59.8437 733.892 54.9358L732.21 53.8533C728.807 59.1407 727.129 65.4893 727.129 72.8516H729.129ZM733.887 54.9426C737.105 50.0308 741.774 46.2533 747.945 43.6251L747.161 41.7851C740.675 44.5475 735.676 48.563 732.214 53.8465L733.887 54.9426ZM747.942 43.6264C754.173 40.9967 761.796 39.6621 770.844 39.6621V37.6621C761.61 37.6621 753.706 39.0228 747.164 41.7838L747.942 43.6264ZM770.844 39.6621C772.026 39.6621 773.862 39.7755 776.376 40.0094L776.561 38.018C774.036 37.7831 772.123 37.6621 770.844 37.6621V39.6621ZM776.399 40.0112C778.904 40.186 781.438 40.419 784.002 40.7104L784.228 38.7232C781.636 38.4286 779.073 38.1929 776.538 38.0161L776.399 40.0112ZM784.025 40.7127C786.595 40.9463 788.558 41.178 789.927 41.4063L790.256 39.4335C788.813 39.193 786.792 38.956 784.206 38.7209L784.025 40.7127ZM790.092 41.4199H824.809V39.4199H790.092V41.4199ZM823.809 40.4199V57.0312H825.809V40.4199H823.809ZM824.463 56.0927L810.84 61.1025L811.531 62.9796L825.154 57.9698L824.463 56.0927ZM810.31 62.5241C811.201 64.1392 811.872 65.8989 812.322 67.8072L814.268 67.3491C813.78 65.273 813.045 63.3412 812.061 61.5579L810.31 62.5241ZM812.322 67.8072C812.771 69.718 812.998 71.7501 812.998 73.9062H814.998C814.998 71.6093 814.756 69.4226 814.268 67.3491L812.322 67.8072ZM812.998 73.9062C812.998 84.3624 809.33 92.3753 802.044 98.0798L803.277 99.6546C811.108 93.5231 814.998 84.8954 814.998 73.9062H812.998ZM802.041 98.0822C794.792 103.802 783.834 106.744 768.998 106.744V108.744C784.045 108.744 795.528 105.769 803.28 99.6522L802.041 98.0822ZM768.998 106.744C765.338 106.744 762.488 106.511 760.42 106.064L759.998 108.018C762.266 108.509 765.276 108.744 768.998 108.744V106.744ZM759.328 106.567C758.89 107.381 758.542 108.203 758.286 109.032L760.198 109.62C760.412 108.926 760.708 108.224 761.089 107.515L759.328 106.567ZM758.272 109.084C758.079 109.856 757.979 110.612 757.979 111.348H759.979C759.979 110.794 760.054 110.202 760.212 109.569L758.272 109.084ZM757.979 111.348C757.979 113.191 759.102 114.56 760.891 115.487L761.812 113.712C760.437 112.999 759.979 112.2 759.979 111.348H757.979ZM760.93 115.507C762.686 116.321 764.753 116.871 767.113 117.174L767.367 115.19C765.158 114.906 763.299 114.401 761.773 113.693L760.93 115.507ZM767.116 117.174C769.496 117.471 771.765 117.621 773.92 117.621V115.621C771.857 115.621 769.672 115.478 767.364 115.189L767.116 117.174ZM773.92 117.621H790.443V115.621H773.92V117.621ZM790.443 117.621C801.52 117.621 809.625 119.945 814.936 124.417L816.224 122.887C810.403 117.985 801.749 115.621 790.443 115.621V117.621ZM814.936 124.417C820.214 128.862 822.93 135.602 822.93 144.834H824.93C824.93 135.199 822.079 127.818 816.224 122.887L814.936 124.417ZM822.93 144.834C822.93 156.616 817.922 165.738 807.828 172.296L808.918 173.973C819.566 167.055 824.93 157.309 824.93 144.834H822.93ZM807.826 172.298C797.74 178.888 783.458 182.242 764.867 182.242V184.242C783.659 184.242 798.381 180.858 808.92 173.972L807.826 172.298ZM766.537 162.797C770.759 162.797 775.008 162.41 779.283 161.638L778.928 159.67C774.766 160.422 770.636 160.797 766.537 160.797V162.797ZM779.27 161.641C783.573 160.924 787.237 159.721 790.236 158.007L789.244 156.27C786.501 157.838 783.076 158.979 778.941 159.668L779.27 161.641ZM790.236 158.007C793.336 156.236 795.047 153.775 795.047 150.635H793.047C793.047 152.885 791.887 154.76 789.244 156.27L790.236 158.007ZM795.047 150.635C795.047 148.249 794.028 146.37 792.025 145.127L790.971 146.826C792.367 147.693 793.047 148.919 793.047 150.635H795.047ZM792.004 145.114C790.154 144.03 787.817 143.326 785.036 142.963L784.777 144.947C787.387 145.287 789.444 145.931 790.992 146.839L792.004 145.114ZM785.036 142.963C782.293 142.606 779.408 142.428 776.381 142.428V144.428C779.33 144.428 782.128 144.601 784.777 144.947L785.036 142.963ZM776.381 142.428H763.021V144.428H776.381V142.428ZM763.021 142.428C760.456 142.428 758.081 142.825 755.906 143.633L756.602 145.508C758.528 144.792 760.665 144.428 763.021 144.428V142.428ZM755.873 143.646C753.766 144.513 752.046 145.679 750.753 147.166L752.262 148.478C753.313 147.27 754.757 146.268 756.635 145.495L755.873 143.646ZM750.753 147.166C749.432 148.686 748.75 150.439 748.75 152.393H750.75C750.75 150.948 751.24 149.654 752.262 148.478L750.753 147.166ZM748.75 152.393C748.75 155.66 750.559 158.208 753.833 160.034L754.807 158.287C751.988 156.714 750.75 154.75 750.75 152.393H748.75ZM753.821 160.026C757.073 161.903 761.338 162.797 766.537 162.797V160.797C761.541 160.797 757.662 159.933 754.82 158.294L753.821 160.026ZM771.195 89.3203C774.777 89.3203 777.615 87.9216 779.574 85.1132L777.934 83.9688C776.378 86.1995 774.176 87.3203 771.195 87.3203V89.3203ZM779.565 85.1258C781.559 82.3595 782.479 78.3324 782.479 73.2031H780.479C780.479 78.152 779.581 81.6835 777.943 83.9562L779.565 85.1258ZM782.479 73.2031C782.479 67.9688 781.622 63.869 779.765 61.0512L778.095 62.1519C779.636 64.4904 780.479 68.125 780.479 73.2031H782.479ZM779.765 61.0512C777.856 58.1551 774.941 56.7344 771.195 56.7344V58.7344C774.363 58.7344 776.605 59.8918 778.095 62.1519L779.765 61.0512ZM771.195 56.7344C767.346 56.7344 764.345 58.1438 762.371 61.0382L764.023 62.1649C765.566 59.9031 767.896 58.7344 771.195 58.7344V56.7344ZM762.377 61.0294C760.448 63.7948 759.561 67.8471 759.561 73.0273H761.561C761.561 68.0123 762.431 64.4474 764.017 62.1737L762.377 61.0294ZM759.561 73.0273C759.561 78.2103 760.449 82.2851 762.371 85.1044L764.023 83.9777C762.43 81.6407 761.561 78.0397 761.561 73.0273H759.561ZM762.377 85.1132C764.355 87.9475 767.356 89.3203 771.195 89.3203V87.3203C767.887 87.3203 765.556 86.1736 764.017 83.9688L762.377 85.1132ZM874.555 40.4199H875.555V39.4199H874.555V40.4199ZM874.555 140V141H875.555V140H874.555ZM840.189 140H839.189V141H840.189V140ZM840.189 40.4199V39.4199H839.189V40.4199H840.189ZM870.336 3.41797L869.844 4.28881L869.85 4.29213L870.336 3.41797ZM870.336 27.6758L870.828 28.5466L870.832 28.544L870.336 27.6758ZM844.584 27.6758L844.07 28.5333L844.078 28.5383L844.086 28.5431L844.584 27.6758ZM844.584 3.41797L844.086 2.55058L844.08 2.55419L844.584 3.41797ZM873.555 40.4199V140H875.555V40.4199H873.555ZM874.555 139H840.189V141H874.555V139ZM841.189 140V40.4199H839.189V140H841.189ZM840.189 41.4199H874.555V39.4199H840.189V41.4199ZM857.504 1.3418C862.285 1.3418 866.386 2.33677 869.844 4.28879L870.828 2.54715C867.02 0.397602 862.567 -0.658203 857.504 -0.658203V1.3418ZM869.85 4.29213C873.094 6.09403 874.873 9.72519 874.873 15.6348H876.873C876.873 9.35684 874.961 4.84347 870.822 2.54381L869.85 4.29213ZM874.873 15.6348C874.873 21.3517 873.103 24.9427 869.84 26.8075L870.832 28.544C874.951 26.1901 876.873 21.7537 876.873 15.6348H874.873ZM869.844 26.805C866.386 28.757 862.285 29.752 857.504 29.752V31.752C862.567 31.752 867.02 30.6962 870.828 28.5466L869.844 26.805ZM857.504 29.752C852.601 29.752 848.474 28.7549 845.082 26.8084L844.086 28.5431C847.842 30.6983 852.329 31.752 857.504 31.752V29.752ZM845.098 26.8183C842.006 24.9629 840.311 21.3723 840.311 15.6348H838.311C838.311 21.7332 840.13 26.1699 844.07 28.5333L845.098 26.8183ZM840.311 15.6348C840.311 9.70464 842.015 6.07402 845.088 4.28175L844.08 2.55419C840.121 4.86348 838.311 9.37739 838.311 15.6348H840.311ZM845.082 4.28534C848.474 2.33888 852.601 1.3418 857.504 1.3418V-0.658203C852.329 -0.658203 847.842 0.395493 844.086 2.5506L845.082 4.28534ZM976.684 48.0664L976.021 48.8155L976.025 48.8186L976.684 48.0664ZM987.318 140V141H988.318V140H987.318ZM963.5 140L962.606 140.447L962.882 141H963.5V140ZM956.908 126.816L957.803 126.369L957.526 125.816H956.908V126.816ZM956.205 126.816V125.816H955.724L955.424 126.192L956.205 126.816ZM947.504 135.43L948.099 136.234L948.101 136.232L947.504 135.43ZM937.396 140.176L937.143 139.208L937.137 139.21L937.13 139.212L937.396 140.176ZM936.342 77.1582L936.31 76.1587L936.303 76.1589L936.296 76.1593L936.342 77.1582ZM952.953 76.6309L952.985 77.6304L953.953 77.5996V76.6309H952.953ZM949.613 65.7324L948.959 66.4889L948.969 66.4973L949.613 65.7324ZM927.641 65.0293L927.911 65.9922L927.918 65.9899L927.641 65.0293ZM913.139 70.3027L912.223 70.7039L912.626 71.6259L913.546 71.2161L913.139 70.3027ZM903.207 47.627L902.753 46.7362L901.913 47.1646L902.291 48.0281L903.207 47.627ZM953.129 95.5273H954.129V94.4819L953.085 94.5283L953.129 95.5273ZM945.219 95.8789L945.256 96.8783L945.263 96.8779L945.219 95.8789ZM931.859 99.2188L932.468 100.012L932.471 100.01L931.859 99.2188ZM930.805 115.127L930.134 115.869L930.141 115.875L930.148 115.881L930.805 115.127ZM948.646 113.545L947.985 112.795L947.978 112.802L948.646 113.545ZM947.152 39.6621C959.588 39.6621 969.167 42.7548 976.021 48.8155L977.346 47.3173C970.02 40.839 959.912 37.6621 947.152 37.6621V39.6621ZM976.025 48.8186C982.85 54.7978 986.318 63.3721 986.318 74.6973H988.318C988.318 62.9365 984.697 53.7569 977.343 47.3142L976.025 48.8186ZM986.318 74.6973V140H988.318V74.6973H986.318ZM987.318 139H963.5V141H987.318V139ZM964.394 139.553L957.803 126.369L956.014 127.264L962.606 140.447L964.394 139.553ZM956.908 125.816H956.205V127.816H956.908V125.816ZM955.424 126.192C952.654 129.654 949.814 132.462 946.906 134.628L948.101 136.232C951.171 133.945 954.131 131.01 956.986 127.441L955.424 126.192ZM946.909 134.626C944.09 136.712 940.839 138.242 937.143 139.208L937.65 141.143C941.571 140.117 945.059 138.483 948.099 136.234L946.909 134.626ZM937.13 139.212C933.435 140.235 928.872 140.758 923.422 140.758V142.758C928.987 142.758 933.741 142.226 937.663 141.14L937.13 139.212ZM923.422 140.758C917.819 140.758 912.823 139.616 908.409 137.352L907.497 139.132C912.224 141.556 917.54 142.758 923.422 142.758V140.758ZM908.409 137.352C904.026 135.104 900.563 131.705 898.017 127.122L896.268 128.093C898.996 133.002 902.74 136.693 907.497 139.132L908.409 137.352ZM898.017 127.122C895.486 122.566 894.188 116.741 894.188 109.59H892.188C892.188 116.97 893.526 123.157 896.268 128.093L898.017 127.122ZM894.188 109.59C894.188 99.1836 897.771 91.6122 904.834 86.6792L903.689 85.0395C895.987 90.4191 892.188 98.6679 892.188 109.59H894.188ZM904.834 86.6792C911.998 81.6758 922.476 78.7974 936.388 78.1572L936.296 76.1593C922.2 76.808 911.291 79.7304 903.689 85.0395L904.834 86.6792ZM936.374 78.1577L952.985 77.6304L952.921 75.6314L936.31 76.1587L936.374 78.1577ZM953.953 76.6309V75.2246H951.953V76.6309H953.953ZM953.953 75.2246C953.953 70.634 952.807 67.1148 950.257 64.9675L948.969 66.4973C950.872 68.1001 951.953 70.909 951.953 75.2246H953.953ZM950.267 64.9761C947.871 62.9031 944.685 61.9199 940.824 61.9199V63.9199C944.346 63.9199 947.02 64.8118 948.959 66.4888L950.267 64.9761ZM940.824 61.9199C936.782 61.9199 932.292 62.6434 927.363 64.0686L927.918 65.9899C932.716 64.6027 937.015 63.9199 940.824 63.9199V61.9199ZM927.371 64.0665C922.516 65.4281 917.636 67.2029 912.732 69.3894L913.546 71.2161C918.368 69.0666 923.156 67.3258 927.911 65.9921L927.371 64.0665ZM914.055 69.9015L904.123 47.2258L902.291 48.0281L912.223 70.7039L914.055 69.9015ZM903.661 48.5177C909.314 45.6338 915.732 43.4339 922.924 41.926L922.514 39.9686C915.174 41.5075 908.584 43.7607 902.753 46.7362L903.661 48.5177ZM922.924 41.926C930.109 40.4193 938.184 39.6621 947.152 39.6621V37.6621C938.074 37.6621 929.859 38.4283 922.514 39.9686L922.924 41.926ZM953.085 94.5283L945.174 94.8799L945.263 96.8779L953.173 96.5264L953.085 94.5283ZM945.182 94.8796C938.811 95.1155 934.086 96.2341 931.248 98.4275L932.471 100.01C934.789 98.219 938.97 97.111 945.256 96.8782L945.182 94.8796ZM931.251 98.4254C928.447 100.577 927.08 103.675 927.08 107.568H929.08C929.08 104.196 930.233 101.727 932.468 100.012L931.251 98.4254ZM927.08 107.568C927.08 111.136 928.036 113.974 930.134 115.869L931.475 114.385C929.94 112.999 929.08 110.798 929.08 107.568H927.08ZM930.148 115.881C932.187 117.657 934.842 118.5 938.012 118.5V116.5C935.205 116.5 933.055 115.761 931.461 114.373L930.148 115.881ZM938.012 118.5C942.404 118.5 946.191 117.1 949.315 114.288L947.978 112.802C945.242 115.263 941.94 116.5 938.012 116.5V118.5ZM949.308 114.295C952.525 111.456 954.129 107.748 954.129 103.262H952.129C952.129 107.213 950.744 110.36 947.985 112.795L949.308 114.295ZM954.129 103.262V95.5273H952.129V103.262H954.129ZM1066.95 137.627L1066.54 136.713L1066.54 136.714L1066.95 137.627ZM1023.53 140.615L1023.39 141.606L1023.4 141.606L1023.53 140.615ZM1006.57 136.221H1005.57V136.912L1006.21 137.156L1006.57 136.221ZM1006.57 108.711L1006.98 107.802L1005.57 107.153V108.711H1006.57ZM1025.73 114.951L1025.53 115.932L1025.54 115.934L1025.73 114.951ZM1049.54 115.566L1049.97 116.473L1049.98 116.467L1049.54 115.566ZM1050.42 108.008L1049.75 108.751L1049.77 108.769L1049.79 108.785L1050.42 108.008ZM1044.01 104.404L1043.6 105.319L1043.61 105.322L1044.01 104.404ZM1031.09 98.9551L1030.7 99.8787L1030.71 99.8802L1031.09 98.9551ZM1017.29 91.4844L1016.69 92.2875L1016.7 92.292L1017.29 91.4844ZM1065.98 40.8594L1065.74 41.829L1065.74 41.8312L1065.98 40.8594ZM1084 47.0996L1084.92 47.4904L1085.3 46.5844L1084.4 46.1854L1084 47.0996ZM1074.59 69.248L1074.18 70.1592L1075.11 70.581L1075.51 69.6389L1074.59 69.248ZM1040.67 69.248L1039.98 69.9762L1039.99 69.986L1040 69.9955L1040.67 69.248ZM1059.12 77.6855L1058.75 78.6127L1058.75 78.6127L1059.12 77.6855ZM1073.45 85.2441L1072.87 86.0562L1072.87 86.0613L1072.88 86.0663L1073.45 85.2441ZM1081.89 94.9121L1080.99 95.3426L1080.99 95.3538L1081.89 94.9121ZM1083.7 109.414C1083.7 115.589 1082.33 121.008 1079.62 125.701L1081.35 126.702C1084.26 121.668 1085.7 115.895 1085.7 109.414H1083.7ZM1079.62 125.701C1076.93 130.345 1072.6 134.026 1066.54 136.713L1067.35 138.541C1073.72 135.72 1078.41 131.784 1081.35 126.702L1079.62 125.701ZM1066.54 136.714C1060.56 139.389 1052.6 140.758 1042.6 140.758V142.758C1052.76 142.758 1061.03 141.372 1067.36 138.54L1066.54 136.714ZM1042.6 140.758C1035.55 140.758 1029.23 140.379 1023.66 139.624L1023.4 141.606C1029.07 142.375 1035.48 142.758 1042.6 142.758V140.758ZM1023.66 139.624C1018.18 138.874 1012.6 137.429 1006.92 135.285L1006.21 137.156C1012.02 139.348 1017.75 140.833 1023.39 141.606L1023.66 139.624ZM1007.57 136.221V108.711H1005.57V136.221H1007.57ZM1006.15 109.62C1012.49 112.522 1018.95 114.627 1025.53 115.932L1025.92 113.97C1019.5 112.697 1013.18 110.642 1006.98 107.802L1006.15 109.62ZM1025.54 115.934C1032.07 117.168 1037.27 117.797 1041.11 117.797V115.797C1037.45 115.797 1032.39 115.195 1025.91 113.969L1025.54 115.934ZM1041.11 117.797C1045 117.797 1048 117.39 1049.97 116.473L1049.12 114.66C1047.57 115.383 1044.95 115.797 1041.11 115.797V117.797ZM1049.98 116.467C1051 115.973 1051.83 115.333 1052.41 114.516C1052.99 113.69 1053.27 112.738 1053.27 111.699H1051.27C1051.27 112.359 1051.1 112.902 1050.77 113.364C1050.44 113.837 1049.91 114.281 1049.11 114.666L1049.98 116.467ZM1053.27 111.699C1053.27 109.906 1052.5 108.399 1051.05 107.231L1049.79 108.785C1050.81 109.609 1051.27 110.563 1051.27 111.699H1053.27ZM1051.09 107.265C1049.79 106.094 1047.52 104.84 1044.41 103.487L1043.61 105.322C1046.7 106.664 1048.71 107.813 1049.75 108.751L1051.09 107.265ZM1044.41 103.49C1041.35 102.137 1037.04 100.316 1031.47 98.03L1030.71 99.8802C1036.27 102.164 1040.57 103.977 1043.6 105.319L1044.41 103.49ZM1031.47 98.0314C1026.02 95.768 1021.49 93.3137 1017.88 90.6767L1016.7 92.292C1020.47 95.0457 1025.14 97.5719 1030.7 99.8787L1031.47 98.0314ZM1017.88 90.6813C1014.37 88.0736 1011.76 84.9732 1010.02 81.3805L1008.22 82.2523C1010.11 86.1597 1012.94 89.5045 1016.69 92.2875L1017.88 90.6813ZM1010.02 81.3805C1008.28 77.8015 1007.39 73.3604 1007.39 68.0176H1005.39C1005.39 73.5732 1006.32 78.3313 1008.22 82.2523L1010.02 81.3805ZM1007.39 68.0176C1007.39 58.5942 1011 51.6002 1018.19 46.881L1017.09 45.2089C1009.28 50.3334 1005.39 57.9878 1005.39 68.0176H1007.39ZM1018.19 46.881C1025.48 42.0994 1035.2 39.6621 1047.44 39.6621V37.6621C1034.95 37.6621 1024.81 40.1467 1017.09 45.2089L1018.19 46.881ZM1047.44 39.6621C1053.92 39.6621 1060.02 40.3862 1065.74 41.8289L1066.23 39.8898C1060.34 38.4029 1054.07 37.6621 1047.44 37.6621V39.6621ZM1065.74 41.8312C1071.48 43.2216 1077.43 45.2809 1083.59 48.0138L1084.4 46.1854C1078.15 43.4105 1072.08 41.3097 1066.22 39.8875L1065.74 41.8312ZM1083.08 46.7088L1073.67 68.8572L1075.51 69.6389L1084.92 47.4904L1083.08 46.7088ZM1075.01 68.3369C1070.04 66.0887 1065 64.2829 1059.91 62.9207L1059.39 64.8528C1064.38 66.1858 1069.31 67.9543 1074.18 70.1592L1075.01 68.3369ZM1059.91 62.9207C1054.84 61.5646 1050.73 60.8652 1047.61 60.8652V62.8652C1050.47 62.8652 1054.39 63.5136 1059.39 64.8528L1059.91 62.9207ZM1047.61 60.8652C1044.85 60.8652 1042.6 61.2213 1040.94 62.0184L1041.8 63.8214C1043.07 63.2123 1044.98 62.8652 1047.61 62.8652V60.8652ZM1040.94 62.0184C1040.1 62.4223 1039.4 62.9511 1038.91 63.6351C1038.41 64.3294 1038.17 65.1292 1038.17 65.9961H1040.17C1040.17 65.5154 1040.3 65.1286 1040.54 64.7975C1040.78 64.4561 1041.18 64.1206 1041.8 63.8214L1040.94 62.0184ZM1038.17 65.9961C1038.17 67.5346 1038.81 68.8731 1039.98 69.9762L1041.35 68.5198C1040.53 67.748 1040.17 66.9185 1040.17 65.9961H1038.17ZM1040 69.9955C1041.19 71.0489 1043.28 72.185 1046.16 73.4191L1046.95 71.5809C1044.09 70.354 1042.26 69.3222 1041.33 68.5006L1040 69.9955ZM1046.16 73.4191C1049.04 74.6538 1053.24 76.3854 1058.75 78.6127L1059.5 76.7584C1053.99 74.5326 1049.81 72.8072 1046.95 71.5809L1046.16 73.4191ZM1058.75 78.6127C1064.5 80.9364 1069.2 83.4206 1072.87 86.0562L1074.03 84.4321C1070.2 81.6771 1065.35 79.1222 1059.5 76.7584L1058.75 78.6127ZM1072.88 86.0663C1076.56 88.6138 1079.25 91.7065 1080.99 95.3426L1082.79 94.4816C1080.89 90.5005 1077.96 87.148 1074.02 84.422L1072.88 86.0663ZM1080.99 95.3538C1082.78 98.983 1083.7 103.653 1083.7 109.414H1085.7C1085.7 103.456 1084.75 98.4584 1082.79 94.4704L1080.99 95.3538ZM1261.89 11.5039H1262.89V10.5039H1261.89V11.5039ZM1255.74 116.973L1256.62 117.433L1256.63 117.43L1255.74 116.973ZM1237.28 135.342L1237.74 136.229L1237.75 136.226L1237.28 135.342ZM1151.94 11.5039V10.5039H1150.94V11.5039H1151.94ZM1186.83 11.5039H1187.83V10.5039H1186.83V11.5039ZM1218.56 110.205L1219.07 111.067L1219.07 111.063L1219.08 111.06L1218.56 110.205ZM1225.06 101.68L1224.12 101.338L1224.12 101.351L1225.06 101.68ZM1227.17 11.5039V10.5039H1226.17V11.5039H1227.17ZM1260.89 11.5039V88.8477H1262.89V11.5039H1260.89ZM1260.89 88.8477C1260.89 99.5017 1258.86 108.714 1254.85 116.515L1256.63 117.43C1260.81 109.294 1262.89 99.7561 1262.89 88.8477H1260.89ZM1254.85 116.512C1250.84 124.234 1244.84 130.213 1236.81 134.458L1237.75 136.226C1246.12 131.799 1252.42 125.532 1256.62 117.433L1254.85 116.512ZM1236.82 134.455C1228.8 138.637 1218.68 140.758 1206.43 140.758V142.758C1218.9 142.758 1229.36 140.601 1237.74 136.229L1236.82 134.455ZM1206.43 140.758C1188.9 140.758 1175.68 136.261 1166.61 127.419L1165.21 128.851C1174.78 138.172 1188.57 142.758 1206.43 142.758V140.758ZM1166.61 127.419C1157.54 118.573 1152.94 106.029 1152.94 89.6387H1150.94C1150.94 106.412 1155.66 119.532 1165.21 128.851L1166.61 127.419ZM1152.94 89.6387V11.5039H1150.94V89.6387H1152.94ZM1151.94 12.5039H1186.83V10.5039H1151.94V12.5039ZM1185.83 11.5039V86.9141H1187.83V11.5039H1185.83ZM1185.83 86.9141C1185.83 96.0793 1187.54 102.958 1191.16 107.327L1192.7 106.051C1189.52 102.218 1187.83 95.9129 1187.83 86.9141H1185.83ZM1191.16 107.327C1194.79 111.713 1200.12 113.842 1206.96 113.842V111.842C1200.55 111.842 1195.86 109.869 1192.7 106.051L1191.16 107.327ZM1206.96 113.842C1211.82 113.842 1215.88 112.943 1219.07 111.067L1218.05 109.343C1215.26 110.983 1211.59 111.842 1206.96 111.842V113.842ZM1219.08 111.06C1222.3 109.103 1224.6 106.056 1226.01 102.009L1224.12 101.351C1222.83 105.038 1220.8 107.675 1218.04 109.351L1219.08 111.06ZM1226 102.021C1227.46 98.0055 1228.17 92.8979 1228.17 86.7383H1226.17C1226.17 92.7662 1225.47 97.6195 1224.12 101.338L1226 102.021ZM1228.17 86.7383V11.5039H1226.17V86.7383H1228.17ZM1227.17 12.5039H1261.89V10.5039H1227.17V12.5039ZM1343.1 137.627L1342.69 136.713L1342.69 136.714L1343.1 137.627ZM1299.68 140.615L1299.55 141.606L1299.55 141.606L1299.68 140.615ZM1282.72 136.221H1281.72V136.912L1282.37 137.156L1282.72 136.221ZM1282.72 108.711L1283.14 107.802L1281.72 107.153V108.711H1282.72ZM1301.88 114.951L1301.68 115.932L1301.69 115.934L1301.88 114.951ZM1325.7 115.566L1326.12 116.473L1326.13 116.467L1325.7 115.566ZM1326.58 108.008L1325.91 108.751L1325.93 108.769L1325.95 108.785L1326.58 108.008ZM1320.16 104.404L1319.76 105.319L1319.76 105.322L1320.16 104.404ZM1307.24 98.9551L1306.86 99.8787L1306.86 99.8802L1307.24 98.9551ZM1293.44 91.4844L1292.85 92.2875L1292.85 92.292L1293.44 91.4844ZM1342.13 40.8594L1341.89 41.829L1341.9 41.8312L1342.13 40.8594ZM1360.15 47.0996L1361.07 47.4904L1361.46 46.5844L1360.56 46.1854L1360.15 47.0996ZM1350.75 69.248L1350.33 70.1592L1351.27 70.581L1351.67 69.6389L1350.75 69.248ZM1316.82 69.248L1316.13 69.9762L1316.15 69.986L1316.16 69.9955L1316.82 69.248ZM1335.28 77.6855L1334.9 78.6127L1334.9 78.6127L1335.28 77.6855ZM1349.6 85.2441L1349.02 86.0562L1349.03 86.0613L1349.03 86.0663L1349.6 85.2441ZM1358.04 94.9121L1357.14 95.3426L1357.14 95.3538L1358.04 94.9121ZM1359.85 109.414C1359.85 115.589 1358.48 121.008 1355.77 125.701L1357.5 126.702C1360.41 121.668 1361.85 115.895 1361.85 109.414H1359.85ZM1355.77 125.701C1353.08 130.345 1348.75 134.026 1342.69 136.713L1343.51 138.541C1349.87 135.72 1354.56 131.784 1357.5 126.702L1355.77 125.701ZM1342.69 136.714C1336.71 139.389 1328.75 140.758 1318.75 140.758V142.758C1328.91 142.758 1337.18 141.372 1343.51 138.54L1342.69 136.714ZM1318.75 140.758C1311.7 140.758 1305.39 140.379 1299.82 139.624L1299.55 141.606C1305.23 142.375 1311.63 142.758 1318.75 142.758V140.758ZM1299.82 139.624C1294.33 138.874 1288.75 137.429 1283.07 135.285L1282.37 137.156C1288.17 139.348 1293.9 140.833 1299.55 141.606L1299.82 139.624ZM1283.72 136.221V108.711H1281.72V136.221H1283.72ZM1282.3 109.62C1288.64 112.522 1295.1 114.627 1301.68 115.932L1302.07 113.97C1295.65 112.697 1289.34 110.642 1283.14 107.802L1282.3 109.62ZM1301.69 115.934C1308.22 117.168 1313.42 117.797 1317.26 117.797V115.797C1313.6 115.797 1308.55 115.195 1302.06 113.969L1301.69 115.934ZM1317.26 117.797C1321.16 117.797 1324.15 117.39 1326.12 116.473L1325.27 114.66C1323.72 115.383 1321.1 115.797 1317.26 115.797V117.797ZM1326.13 116.467C1327.15 115.973 1327.98 115.333 1328.56 114.516C1329.14 113.69 1329.42 112.738 1329.42 111.699H1327.42C1327.42 112.359 1327.25 112.902 1326.92 113.364C1326.59 113.837 1326.06 114.281 1325.26 114.666L1326.13 116.467ZM1329.42 111.699C1329.42 109.906 1328.65 108.399 1327.21 107.231L1325.95 108.785C1326.96 109.609 1327.42 110.563 1327.42 111.699H1329.42ZM1327.25 107.265C1325.94 106.094 1323.68 104.84 1320.56 103.487L1319.76 105.322C1322.86 106.664 1324.86 107.813 1325.91 108.751L1327.25 107.265ZM1320.56 103.49C1317.51 102.137 1313.19 100.316 1307.62 98.03L1306.86 99.8802C1312.42 102.164 1316.72 103.977 1319.76 105.319L1320.56 103.49ZM1307.62 98.0314C1302.17 95.768 1297.64 93.3137 1294.03 90.6767L1292.85 92.292C1296.62 95.0457 1301.3 97.5719 1306.86 99.8787L1307.62 98.0314ZM1294.04 90.6813C1290.52 88.0736 1287.91 84.9732 1286.17 81.3805L1284.37 82.2523C1286.26 86.1597 1289.09 89.5045 1292.85 92.2875L1294.04 90.6813ZM1286.17 81.3805C1284.43 77.8015 1283.54 73.3604 1283.54 68.0176H1281.54C1281.54 73.5732 1282.47 78.3313 1284.37 82.2523L1286.17 81.3805ZM1283.54 68.0176C1283.54 58.5942 1287.15 51.6002 1294.34 46.881L1293.24 45.2089C1285.44 50.3334 1281.54 57.9878 1281.54 68.0176H1283.54ZM1294.34 46.881C1301.63 42.0994 1311.35 39.6621 1323.59 39.6621V37.6621C1311.1 37.6621 1300.96 40.1467 1293.24 45.2089L1294.34 46.881ZM1323.59 39.6621C1330.08 39.6621 1336.17 40.3862 1341.89 41.8289L1342.38 39.8898C1336.49 38.4029 1330.23 37.6621 1323.59 37.6621V39.6621ZM1341.9 41.8312C1347.63 43.2216 1353.58 45.2809 1359.74 48.0138L1360.56 46.1854C1354.3 43.4105 1348.23 41.3097 1342.37 39.8875L1341.9 41.8312ZM1359.23 46.7088L1349.83 68.8572L1351.67 69.6389L1361.07 47.4904L1359.23 46.7088ZM1351.16 68.3369C1346.19 66.0887 1341.16 64.2829 1336.06 62.9207L1335.55 64.8528C1340.53 66.1858 1345.46 67.9543 1350.33 70.1592L1351.16 68.3369ZM1336.06 62.9207C1330.99 61.5646 1326.88 60.8652 1323.76 60.8652V62.8652C1326.62 62.8652 1330.54 63.5136 1335.55 64.8528L1336.06 62.9207ZM1323.76 60.8652C1321.01 60.8652 1318.75 61.2213 1317.09 62.0184L1317.96 63.8214C1319.23 63.2123 1321.13 62.8652 1323.76 62.8652V60.8652ZM1317.09 62.0184C1316.25 62.4223 1315.55 62.9511 1315.06 63.6351C1314.57 64.3294 1314.33 65.1292 1314.33 65.9961H1316.33C1316.33 65.5154 1316.45 65.1286 1316.69 64.7975C1316.93 64.4561 1317.33 64.1206 1317.96 63.8214L1317.09 62.0184ZM1314.33 65.9961C1314.33 67.5346 1314.96 68.8731 1316.13 69.9762L1317.51 68.5198C1316.69 67.748 1316.33 66.9185 1316.33 65.9961H1314.33ZM1316.16 69.9955C1317.34 71.0489 1319.44 72.185 1322.32 73.4191L1323.1 71.5809C1320.24 70.354 1318.41 69.3222 1317.48 68.5006L1316.16 69.9955ZM1322.32 73.4191C1325.2 74.6538 1329.39 76.3854 1334.9 78.6127L1335.65 76.7584C1330.15 74.5326 1325.96 72.8072 1323.1 71.5809L1322.32 73.4191ZM1334.9 78.6127C1340.65 80.9364 1345.35 83.4206 1349.02 86.0562L1350.19 84.4321C1346.35 81.6771 1341.5 79.1222 1335.65 76.7584L1334.9 78.6127ZM1349.03 86.0663C1352.71 88.6138 1355.4 91.7065 1357.14 95.3426L1358.94 94.4816C1357.04 90.5005 1354.11 87.148 1350.17 84.422L1349.03 86.0663ZM1357.14 95.3538C1358.93 98.983 1359.85 103.653 1359.85 109.414H1361.85C1361.85 103.456 1360.9 98.4584 1358.94 94.4704L1357.14 95.3538ZM1458.15 48.0664L1457.49 48.8155L1457.49 48.8186L1458.15 48.0664ZM1468.78 140V141H1469.78V140H1468.78ZM1444.96 140L1444.07 140.447L1444.35 141H1444.96V140ZM1438.37 126.816L1439.27 126.369L1438.99 125.816H1438.37V126.816ZM1437.67 126.816V125.816H1437.19L1436.89 126.192L1437.67 126.816ZM1428.97 135.43L1429.56 136.234L1429.57 136.232L1428.97 135.43ZM1418.86 140.176L1418.61 139.208L1418.6 139.21L1418.59 139.212L1418.86 140.176ZM1417.81 77.1582L1417.77 76.1587L1417.77 76.1589L1417.76 76.1593L1417.81 77.1582ZM1434.42 76.6309L1434.45 77.6304L1435.42 77.5996V76.6309H1434.42ZM1431.08 65.7324L1430.42 66.4889L1430.43 66.4973L1431.08 65.7324ZM1409.11 65.0293L1409.38 65.9922L1409.38 65.9899L1409.11 65.0293ZM1394.6 70.3027L1393.69 70.7039L1394.09 71.6259L1395.01 71.2161L1394.6 70.3027ZM1384.67 47.627L1384.22 46.7362L1383.38 47.1646L1383.76 48.0281L1384.67 47.627ZM1434.59 95.5273H1435.59V94.4819L1434.55 94.5283L1434.59 95.5273ZM1426.68 95.8789L1426.72 96.8783L1426.73 96.8779L1426.68 95.8789ZM1413.32 99.2188L1413.93 100.012L1413.94 100.01L1413.32 99.2188ZM1412.27 115.127L1411.6 115.869L1411.61 115.875L1411.61 115.881L1412.27 115.127ZM1430.11 113.545L1429.45 112.795L1429.44 112.802L1430.11 113.545ZM1428.62 39.6621C1441.05 39.6621 1450.63 42.7548 1457.49 48.8155L1458.81 47.3173C1451.48 40.839 1441.38 37.6621 1428.62 37.6621V39.6621ZM1457.49 48.8186C1464.31 54.7978 1467.78 63.3721 1467.78 74.6973H1469.78C1469.78 62.9365 1466.16 53.7569 1458.81 47.3142L1457.49 48.8186ZM1467.78 74.6973V140H1469.78V74.6973H1467.78ZM1468.78 139H1444.96V141H1468.78V139ZM1445.86 139.553L1439.27 126.369L1437.48 127.264L1444.07 140.447L1445.86 139.553ZM1438.37 125.816H1437.67V127.816H1438.37V125.816ZM1436.89 126.192C1434.12 129.654 1431.28 132.462 1428.37 134.628L1429.57 136.232C1432.64 133.945 1435.6 131.01 1438.45 127.441L1436.89 126.192ZM1428.37 134.626C1425.55 136.712 1422.3 138.242 1418.61 139.208L1419.11 141.143C1423.04 140.117 1426.52 138.483 1429.56 136.234L1428.37 134.626ZM1418.59 139.212C1414.9 140.235 1410.34 140.758 1404.89 140.758V142.758C1410.45 142.758 1415.21 142.226 1419.13 141.14L1418.59 139.212ZM1404.89 140.758C1399.28 140.758 1394.29 139.616 1389.87 137.352L1388.96 139.132C1393.69 141.556 1399 142.758 1404.89 142.758V140.758ZM1389.87 137.352C1385.49 135.104 1382.03 131.705 1379.48 127.122L1377.73 128.093C1380.46 133.002 1384.2 136.693 1388.96 139.132L1389.87 137.352ZM1379.48 127.122C1376.95 122.566 1375.65 116.741 1375.65 109.59H1373.65C1373.65 116.97 1374.99 123.157 1377.73 128.093L1379.48 127.122ZM1375.65 109.59C1375.65 99.1836 1379.24 91.6122 1386.3 86.6792L1385.15 85.0395C1377.45 90.4191 1373.65 98.6679 1373.65 109.59H1375.65ZM1386.3 86.6792C1393.46 81.6758 1403.94 78.7974 1417.85 78.1572L1417.76 76.1593C1403.66 76.808 1392.76 79.7304 1385.15 85.0395L1386.3 86.6792ZM1417.84 78.1577L1434.45 77.6304L1434.39 75.6314L1417.77 76.1587L1417.84 78.1577ZM1435.42 76.6309V75.2246H1433.42V76.6309H1435.42ZM1435.42 75.2246C1435.42 70.634 1434.27 67.1148 1431.72 64.9675L1430.43 66.4973C1432.34 68.1001 1433.42 70.909 1433.42 75.2246H1435.42ZM1431.73 64.9761C1429.34 62.9031 1426.15 61.9199 1422.29 61.9199V63.9199C1425.81 63.9199 1428.48 64.8118 1430.42 66.4888L1431.73 64.9761ZM1422.29 61.9199C1418.25 61.9199 1413.76 62.6434 1408.83 64.0686L1409.38 65.9899C1414.18 64.6027 1418.48 63.9199 1422.29 63.9199V61.9199ZM1408.84 64.0665C1403.98 65.4281 1399.1 67.2029 1394.2 69.3894L1395.01 71.2161C1399.83 69.0666 1404.62 67.3258 1409.38 65.9921L1408.84 64.0665ZM1395.52 69.9015L1385.59 47.2258L1383.76 48.0281L1393.69 70.7039L1395.52 69.9015ZM1385.13 48.5177C1390.78 45.6338 1397.2 43.4339 1404.39 41.926L1403.98 39.9686C1396.64 41.5075 1390.05 43.7607 1384.22 46.7362L1385.13 48.5177ZM1404.39 41.926C1411.57 40.4193 1419.65 39.6621 1428.62 39.6621V37.6621C1419.54 37.6621 1411.32 38.4283 1403.98 39.9686L1404.39 41.926ZM1434.55 94.5283L1426.64 94.8799L1426.73 96.8779L1434.64 96.5264L1434.55 94.5283ZM1426.65 94.8796C1420.28 95.1155 1415.55 96.2341 1412.71 98.4275L1413.94 100.01C1416.25 98.219 1420.43 97.111 1426.72 96.8782L1426.65 94.8796ZM1412.72 98.4254C1409.91 100.577 1408.54 103.675 1408.54 107.568H1410.54C1410.54 104.196 1411.7 101.727 1413.93 100.012L1412.72 98.4254ZM1408.54 107.568C1408.54 111.136 1409.5 113.974 1411.6 115.869L1412.94 114.385C1411.41 112.999 1410.54 110.798 1410.54 107.568H1408.54ZM1411.61 115.881C1413.65 117.657 1416.31 118.5 1419.48 118.5V116.5C1416.67 116.5 1414.52 115.761 1412.93 114.373L1411.61 115.881ZM1419.48 118.5C1423.87 118.5 1427.66 117.1 1430.78 114.288L1429.44 112.802C1426.71 115.263 1423.4 116.5 1419.48 116.5V118.5ZM1430.77 114.295C1433.99 111.456 1435.59 107.748 1435.59 103.262H1433.59C1433.59 107.213 1432.21 110.36 1429.45 112.795L1430.77 114.295ZM1435.59 103.262V95.5273H1433.59V103.262H1435.59ZM1544.28 45.8691L1543.59 46.5941L1543.6 46.603L1543.61 46.6115L1544.28 45.8691ZM1550.52 53.252L1549.68 53.79L1549.97 54.252H1550.52V53.252ZM1551.22 53.252V54.252H1552.4L1552.21 53.0913L1551.22 53.252ZM1550.08 42.8809L1549.09 42.9596L1549.09 42.9606L1550.08 42.8809ZM1549.55 3.24219V2.24219H1548.55V3.24219H1549.55ZM1584.18 3.24219H1585.18V2.24219H1584.18V3.24219ZM1584.18 140V141H1585.18V140H1584.18ZM1558.26 140L1557.39 140.507L1557.68 141H1558.26V140ZM1550.87 127.432L1551.74 126.925L1551.45 126.432H1550.87V127.432ZM1549.55 127.432V126.432H1548.99L1548.7 126.917L1549.55 127.432ZM1543.58 134.639L1542.91 133.896L1542.9 133.905L1543.58 134.639ZM1534.96 139.824L1534.61 138.889L1534.6 138.891L1534.96 139.824ZM1548.76 109.414L1547.93 108.869L1547.92 108.873L1548.76 109.414ZM1552.46 93.418L1553.45 93.4426L1553.46 93.4303V93.418H1552.46ZM1549.12 72.6758L1548.23 73.1329L1548.23 73.1403L1548.23 73.1477L1549.12 72.6758ZM1526.62 108.975L1525.8 109.552L1525.8 109.559L1525.81 109.567L1526.62 108.975ZM1523.1 140.758C1513.18 140.758 1505.03 136.559 1498.58 128.058L1496.99 129.266C1503.79 138.226 1512.51 142.758 1523.1 142.758V140.758ZM1498.58 128.058C1492.15 119.572 1488.86 107.05 1488.86 90.3418H1486.86C1486.86 107.266 1490.18 120.291 1496.99 129.266L1498.58 128.058ZM1488.86 90.3418C1488.86 73.4594 1492.24 60.855 1498.84 52.3721L1497.26 51.1435C1490.27 60.1216 1486.86 73.2398 1486.86 90.3418H1488.86ZM1498.84 52.3721C1505.45 43.8776 1513.95 39.6621 1524.42 39.6621V37.6621C1513.32 37.6621 1504.24 42.1771 1497.26 51.1435L1498.84 52.3721ZM1524.42 39.6621C1528.78 39.6621 1532.48 40.2937 1535.56 41.5242L1536.3 39.6672C1532.93 38.3196 1528.96 37.6621 1524.42 37.6621V39.6621ZM1535.56 41.5242C1538.67 42.7696 1541.35 44.4612 1543.59 46.5941L1544.97 45.1441C1542.53 42.824 1539.63 40.9999 1536.3 39.6672L1535.56 41.5242ZM1543.61 46.6115C1545.95 48.7189 1547.97 51.1109 1549.68 53.79L1551.36 52.7139C1549.56 49.8852 1547.42 47.3554 1544.95 45.1267L1543.61 46.6115ZM1550.52 54.252H1551.22V52.252H1550.52V54.252ZM1552.21 53.0913C1551.81 50.611 1551.43 47.1849 1551.08 42.8011L1549.09 42.9606C1549.44 47.3658 1549.82 50.8539 1550.24 53.4126L1552.21 53.0913ZM1551.08 42.8022C1550.73 38.3737 1550.55 34.064 1550.55 29.873H1548.55C1548.55 34.1195 1548.73 38.4818 1549.09 42.9596L1551.08 42.8022ZM1550.55 29.873V3.24219H1548.55V29.873H1550.55ZM1549.55 4.24219H1584.18V2.24219H1549.55V4.24219ZM1583.18 3.24219V140H1585.18V3.24219H1583.18ZM1584.18 139H1558.26V141H1584.18V139ZM1559.12 139.493L1551.74 126.925L1550.01 127.938L1557.39 140.507L1559.12 139.493ZM1550.87 126.432H1549.55V128.432H1550.87V126.432ZM1548.7 126.917C1547.17 129.465 1545.24 131.791 1542.91 133.896L1544.25 135.381C1546.72 133.15 1548.78 130.672 1550.41 127.946L1548.7 126.917ZM1542.9 133.905C1540.66 135.974 1537.91 137.639 1534.61 138.889L1535.32 140.759C1538.82 139.431 1541.81 137.639 1544.26 135.373L1542.9 133.905ZM1534.6 138.891C1531.41 140.126 1527.58 140.758 1523.1 140.758V142.758C1527.76 142.758 1531.84 142.101 1535.32 140.757L1534.6 138.891ZM1537.16 115.6C1542.88 115.6 1547.13 113.792 1549.6 109.956L1547.92 108.873C1545.94 111.95 1542.46 113.6 1537.16 113.6V115.6ZM1549.6 109.959C1552.04 106.214 1553.28 100.661 1553.45 93.4426L1551.46 93.3934C1551.28 100.472 1550.06 105.583 1547.93 108.869L1549.6 109.959ZM1553.46 93.418V90.6934H1551.46V93.418H1553.46ZM1553.46 90.6934C1553.46 82.7736 1552.34 76.5754 1550 72.2039L1548.23 73.1477C1550.35 77.0965 1551.46 82.91 1551.46 90.6934H1553.46ZM1550 72.2187C1547.62 67.5713 1543.1 65.3477 1536.81 65.3477V67.3477C1542.59 67.3477 1546.28 69.3428 1548.23 73.1329L1550 72.2187ZM1536.81 65.3477C1532.32 65.3477 1528.63 67.5594 1525.79 71.7639L1527.44 72.8845C1529.99 69.1203 1533.1 67.3477 1536.81 67.3477V65.3477ZM1525.79 71.7639C1522.92 75.9963 1521.57 82.4213 1521.57 90.8691H1523.57C1523.57 82.5592 1524.92 76.6209 1527.44 72.8845L1525.79 71.7639ZM1521.57 90.8691C1521.57 99.1974 1522.92 105.488 1525.8 109.552L1527.43 108.397C1524.92 104.844 1523.57 99.0643 1523.57 90.8691H1521.57ZM1525.81 109.567C1528.73 113.547 1532.54 115.6 1537.16 115.6V113.6C1533.23 113.6 1530.01 111.902 1527.42 108.383L1525.81 109.567ZM1686.14 48.0664L1685.47 48.8155L1685.48 48.8186L1686.14 48.0664ZM1696.77 140V141H1697.77V140H1696.77ZM1672.95 140L1672.06 140.447L1672.34 141H1672.95V140ZM1666.36 126.816L1667.26 126.369L1666.98 125.816H1666.36V126.816ZM1665.66 126.816V125.816H1665.18L1664.88 126.192L1665.66 126.816ZM1656.96 135.43L1657.55 136.234L1657.55 136.232L1656.96 135.43ZM1646.85 140.176L1646.6 139.208L1646.59 139.21L1646.58 139.212L1646.85 140.176ZM1645.79 77.1582L1645.76 76.1587L1645.76 76.1589L1645.75 76.1593L1645.79 77.1582ZM1662.41 76.6309L1662.44 77.6304L1663.41 77.5996V76.6309H1662.41ZM1659.07 65.7324L1658.41 66.4889L1658.42 66.4973L1659.07 65.7324ZM1637.09 65.0293L1637.36 65.9922L1637.37 65.9899L1637.09 65.0293ZM1622.59 70.3027L1621.68 70.7039L1622.08 71.6259L1623 71.2161L1622.59 70.3027ZM1612.66 47.627L1612.21 46.7362L1611.37 47.1646L1611.74 48.0281L1612.66 47.627ZM1662.58 95.5273H1663.58V94.4819L1662.54 94.5283L1662.58 95.5273ZM1654.67 95.8789L1654.71 96.8783L1654.72 96.8779L1654.67 95.8789ZM1641.31 99.2188L1641.92 100.012L1641.92 100.01L1641.31 99.2188ZM1640.26 115.127L1639.59 115.869L1639.59 115.875L1639.6 115.881L1640.26 115.127ZM1658.1 113.545L1657.44 112.795L1657.43 112.802L1658.1 113.545ZM1656.61 39.6621C1669.04 39.6621 1678.62 42.7548 1685.47 48.8155L1686.8 47.3173C1679.47 40.839 1669.37 37.6621 1656.61 37.6621V39.6621ZM1685.48 48.8186C1692.3 54.7978 1695.77 63.3721 1695.77 74.6973H1697.77C1697.77 62.9365 1694.15 53.7569 1686.8 47.3142L1685.48 48.8186ZM1695.77 74.6973V140H1697.77V74.6973H1695.77ZM1696.77 139H1672.95V141H1696.77V139ZM1673.85 139.553L1667.26 126.369L1665.47 127.264L1672.06 140.447L1673.85 139.553ZM1666.36 125.816H1665.66V127.816H1666.36V125.816ZM1664.88 126.192C1662.11 129.654 1659.27 132.462 1656.36 134.628L1657.55 136.232C1660.62 133.945 1663.58 131.01 1666.44 127.441L1664.88 126.192ZM1656.36 134.626C1653.54 136.712 1650.29 138.242 1646.6 139.208L1647.1 141.143C1651.02 140.117 1654.51 138.483 1657.55 136.234L1656.36 134.626ZM1646.58 139.212C1642.89 140.235 1638.33 140.758 1632.88 140.758V142.758C1638.44 142.758 1643.19 142.226 1647.12 141.14L1646.58 139.212ZM1632.88 140.758C1627.27 140.758 1622.28 139.616 1617.86 137.352L1616.95 139.132C1621.68 141.556 1626.99 142.758 1632.88 142.758V140.758ZM1617.86 137.352C1613.48 135.104 1610.02 131.705 1607.47 127.122L1605.72 128.093C1608.45 133.002 1612.19 136.693 1616.95 139.132L1617.86 137.352ZM1607.47 127.122C1604.94 122.566 1603.64 116.741 1603.64 109.59H1601.64C1601.64 116.97 1602.98 123.157 1605.72 128.093L1607.47 127.122ZM1603.64 109.59C1603.64 99.1836 1607.22 91.6122 1614.29 86.6792L1613.14 85.0395C1605.44 90.4191 1601.64 98.6679 1601.64 109.59H1603.64ZM1614.29 86.6792C1621.45 81.6758 1631.93 78.7974 1645.84 78.1572L1645.75 76.1593C1631.65 76.808 1620.74 79.7304 1613.14 85.0395L1614.29 86.6792ZM1645.83 78.1577L1662.44 77.6304L1662.37 75.6314L1645.76 76.1587L1645.83 78.1577ZM1663.41 76.6309V75.2246H1661.41V76.6309H1663.41ZM1663.41 75.2246C1663.41 70.634 1662.26 67.1148 1659.71 64.9675L1658.42 66.4973C1660.33 68.1001 1661.41 70.909 1661.41 75.2246H1663.41ZM1659.72 64.9761C1657.32 62.9031 1654.14 61.9199 1650.28 61.9199V63.9199C1653.8 63.9199 1656.47 64.8118 1658.41 66.4888L1659.72 64.9761ZM1650.28 61.9199C1646.23 61.9199 1641.74 62.6434 1636.82 64.0686L1637.37 65.9899C1642.17 64.6027 1646.47 63.9199 1650.28 63.9199V61.9199ZM1636.82 64.0665C1631.97 65.4281 1627.09 67.2029 1622.18 69.3894L1623 71.2161C1627.82 69.0666 1632.61 67.3258 1637.36 65.9921L1636.82 64.0665ZM1623.51 69.9015L1613.58 47.2258L1611.74 48.0281L1621.68 70.7039L1623.51 69.9015ZM1613.11 48.5177C1618.77 45.6338 1625.19 43.4339 1632.38 41.926L1631.97 39.9686C1624.63 41.5075 1618.04 43.7607 1612.21 46.7362L1613.11 48.5177ZM1632.38 41.926C1639.56 40.4193 1647.64 39.6621 1656.61 39.6621V37.6621C1647.53 37.6621 1639.31 38.4283 1631.97 39.9686L1632.38 41.926ZM1662.54 94.5283L1654.63 94.8799L1654.72 96.8779L1662.63 96.5264L1662.54 94.5283ZM1654.63 94.8796C1648.26 95.1155 1643.54 96.2341 1640.7 98.4275L1641.92 100.01C1644.24 98.219 1648.42 97.111 1654.71 96.8782L1654.63 94.8796ZM1640.7 98.4254C1637.9 100.577 1636.53 103.675 1636.53 107.568H1638.53C1638.53 104.196 1639.69 101.727 1641.92 100.012L1640.7 98.4254ZM1636.53 107.568C1636.53 111.136 1637.49 113.974 1639.59 115.869L1640.93 114.385C1639.39 112.999 1638.53 110.798 1638.53 107.568H1636.53ZM1639.6 115.881C1641.64 117.657 1644.3 118.5 1647.46 118.5V116.5C1644.66 116.5 1642.51 115.761 1640.91 114.373L1639.6 115.881ZM1647.46 118.5C1651.86 118.5 1655.64 117.1 1658.77 114.288L1657.43 112.802C1654.7 115.263 1651.39 116.5 1647.46 116.5V118.5ZM1658.76 114.295C1661.98 111.456 1663.58 107.748 1663.58 103.262H1661.58C1661.58 107.213 1660.2 110.36 1657.44 112.795L1658.76 114.295ZM1663.58 103.262V95.5273H1661.58V103.262H1663.58ZM1776.4 137.627L1775.99 136.713L1775.99 136.714L1776.4 137.627ZM1732.98 140.615L1732.85 141.606L1732.85 141.606L1732.98 140.615ZM1716.02 136.221H1715.02V136.912L1715.67 137.156L1716.02 136.221ZM1716.02 108.711L1716.44 107.802L1715.02 107.153V108.711H1716.02ZM1735.18 114.951L1734.99 115.932L1734.99 115.934L1735.18 114.951ZM1759 115.566L1759.42 116.473L1759.43 116.467L1759 115.566ZM1759.88 108.008L1759.21 108.751L1759.23 108.769L1759.25 108.785L1759.88 108.008ZM1753.46 104.404L1753.06 105.319L1753.06 105.322L1753.46 104.404ZM1740.54 98.9551L1740.16 99.8787L1740.16 99.8802L1740.54 98.9551ZM1726.74 91.4844L1726.15 92.2875L1726.15 92.292L1726.74 91.4844ZM1775.43 40.8594L1775.19 41.829L1775.2 41.8312L1775.43 40.8594ZM1793.45 47.0996L1794.37 47.4904L1794.76 46.5844L1793.86 46.1854L1793.45 47.0996ZM1784.05 69.248L1783.63 70.1592L1784.57 70.581L1784.97 69.6389L1784.05 69.248ZM1750.12 69.248L1749.44 69.9762L1749.45 69.986L1749.46 69.9955L1750.12 69.248ZM1768.58 77.6855L1768.2 78.6127L1768.2 78.6127L1768.58 77.6855ZM1782.9 85.2441L1782.32 86.0562L1782.33 86.0613L1782.34 86.0663L1782.9 85.2441ZM1791.34 94.9121L1790.44 95.3426L1790.44 95.3538L1791.34 94.9121ZM1793.15 109.414C1793.15 115.589 1791.78 121.008 1789.07 125.701L1790.8 126.702C1793.71 121.668 1795.15 115.895 1795.15 109.414H1793.15ZM1789.07 125.701C1786.38 130.345 1782.05 134.026 1775.99 136.713L1776.81 138.541C1783.17 135.72 1787.86 131.784 1790.8 126.702L1789.07 125.701ZM1775.99 136.714C1770.02 139.389 1762.06 140.758 1752.05 140.758V142.758C1762.21 142.758 1770.48 141.372 1776.81 138.54L1775.99 136.714ZM1752.05 140.758C1745 140.758 1738.69 140.379 1733.12 139.624L1732.85 141.606C1738.53 142.375 1744.93 142.758 1752.05 142.758V140.758ZM1733.12 139.624C1727.63 138.874 1722.05 137.429 1716.37 135.285L1715.67 137.156C1721.47 139.348 1727.2 140.833 1732.85 141.606L1733.12 139.624ZM1717.02 136.221V108.711H1715.02V136.221H1717.02ZM1715.6 109.62C1721.94 112.522 1728.4 114.627 1734.99 115.932L1735.37 113.97C1728.95 112.697 1722.64 110.642 1716.44 107.802L1715.6 109.62ZM1734.99 115.934C1741.52 117.168 1746.72 117.797 1750.56 117.797V115.797C1746.9 115.797 1741.85 115.195 1735.37 113.969L1734.99 115.934ZM1750.56 117.797C1754.46 117.797 1757.45 117.39 1759.42 116.473L1758.58 114.66C1757.03 115.383 1754.4 115.797 1750.56 115.797V117.797ZM1759.43 116.467C1760.45 115.973 1761.28 115.333 1761.86 114.516C1762.44 113.69 1762.72 112.738 1762.72 111.699H1760.72C1760.72 112.359 1760.55 112.902 1760.22 113.364C1759.89 113.837 1759.36 114.281 1758.56 114.666L1759.43 116.467ZM1762.72 111.699C1762.72 109.906 1761.95 108.399 1760.51 107.231L1759.25 108.785C1760.27 109.609 1760.72 110.563 1760.72 111.699H1762.72ZM1760.55 107.265C1759.24 106.094 1756.98 104.84 1753.86 103.487L1753.06 105.322C1756.16 106.664 1758.17 107.813 1759.21 108.751L1760.55 107.265ZM1753.87 103.49C1750.81 102.137 1746.49 100.316 1740.92 98.03L1740.16 99.8802C1745.72 102.164 1750.02 103.977 1753.06 105.319L1753.87 103.49ZM1740.92 98.0314C1735.47 95.768 1730.94 93.3137 1727.33 90.6767L1726.15 92.292C1729.92 95.0457 1734.6 97.5719 1740.16 99.8787L1740.92 98.0314ZM1727.34 90.6813C1723.82 88.0736 1721.21 84.9732 1719.47 81.3805L1717.67 82.2523C1719.56 86.1597 1722.4 89.5045 1726.15 92.2875L1727.34 90.6813ZM1719.47 81.3805C1717.73 77.8015 1716.84 73.3604 1716.84 68.0176H1714.84C1714.84 73.5732 1715.77 78.3313 1717.67 82.2523L1719.47 81.3805ZM1716.84 68.0176C1716.84 58.5942 1720.45 51.6002 1727.64 46.881L1726.55 45.2089C1718.74 50.3334 1714.84 57.9878 1714.84 68.0176H1716.84ZM1727.64 46.881C1734.93 42.0994 1744.65 39.6621 1756.89 39.6621V37.6621C1744.4 37.6621 1734.26 40.1467 1726.55 45.2089L1727.64 46.881ZM1756.89 39.6621C1763.38 39.6621 1769.48 40.3862 1775.19 41.8289L1775.68 39.8898C1769.79 38.4029 1763.53 37.6621 1756.89 37.6621V39.6621ZM1775.2 41.8312C1780.93 43.2216 1786.88 45.2809 1793.05 48.0138L1793.86 46.1854C1787.6 43.4105 1781.54 41.3097 1775.67 39.8875L1775.2 41.8312ZM1792.53 46.7088L1783.13 68.8572L1784.97 69.6389L1794.37 47.4904L1792.53 46.7088ZM1784.46 68.3369C1779.49 66.0887 1774.46 64.2829 1769.36 62.9207L1768.85 64.8528C1773.83 66.1858 1778.76 67.9543 1783.63 70.1592L1784.46 68.3369ZM1769.36 62.9207C1764.29 61.5646 1760.18 60.8652 1757.06 60.8652V62.8652C1759.92 62.8652 1763.84 63.5136 1768.85 64.8528L1769.36 62.9207ZM1757.06 60.8652C1754.31 60.8652 1752.05 61.2213 1750.39 62.0184L1751.26 63.8214C1752.53 63.2123 1754.43 62.8652 1757.06 62.8652V60.8652ZM1750.39 62.0184C1749.55 62.4223 1748.85 62.9511 1748.36 63.6351C1747.87 64.3294 1747.63 65.1292 1747.63 65.9961H1749.63C1749.63 65.5154 1749.75 65.1286 1749.99 64.7975C1750.23 64.4561 1750.63 64.1206 1751.26 63.8214L1750.39 62.0184ZM1747.63 65.9961C1747.63 67.5346 1748.26 68.8731 1749.44 69.9762L1750.81 68.5198C1749.99 67.748 1749.63 66.9185 1749.63 65.9961H1747.63ZM1749.46 69.9955C1750.64 71.0489 1752.74 72.185 1755.62 73.4191L1756.4 71.5809C1753.54 70.354 1751.71 69.3222 1750.79 68.5006L1749.46 69.9955ZM1755.62 73.4191C1758.5 74.6538 1762.69 76.3854 1768.2 78.6127L1768.95 76.7584C1763.45 74.5326 1759.27 72.8072 1756.4 71.5809L1755.62 73.4191ZM1768.2 78.6127C1773.95 80.9364 1778.65 83.4206 1782.32 86.0562L1783.49 84.4321C1779.65 81.6771 1774.8 79.1222 1768.95 76.7584L1768.2 78.6127ZM1782.34 86.0663C1786.01 88.6138 1788.71 91.7065 1790.44 95.3426L1792.24 94.4816C1790.35 90.5005 1787.41 87.148 1783.47 84.422L1782.34 86.0663ZM1790.44 95.3538C1792.23 98.983 1793.15 103.653 1793.15 109.414H1795.15C1795.15 103.456 1794.2 98.4584 1792.24 94.4704L1790.44 95.3538Z" fill="white"/>
</svg>
