<svg width="142" height="142" viewBox="0 0 142 142" fill="none" xmlns="http://www.w3.org/2000/svg">
<circle cx="71" cy="71" r="71" fill="#1B1B1B"/>
<path d="M108.016 52.8242V110.329C108.016 113.255 105.699 115.572 102.773 115.572H38.0287C35.1024 115.572 32.7858 113.255 32.7858 110.329V52.8242H108.031H108.016Z" fill="#F7D622"/>
<path d="M96.9205 26.9307C99.3896 26.9307 101.234 28.9273 101.234 31.2439C101.234 33.713 99.2372 35.5572 96.9205 35.5572C94.6039 35.5572 92.6073 33.5606 92.6073 31.2439C92.6073 28.7748 94.4515 26.9307 96.9205 26.9307Z" fill="#F7D622"/>
<path d="M43.4239 30.7852C44.9633 30.7852 46.3502 32.0197 46.3502 33.7115C46.3502 35.2508 45.1157 36.6378 43.4239 36.6378C41.7322 36.6378 40.4976 35.4032 40.4976 33.7115C40.4976 32.0197 41.8846 30.7852 43.4239 30.7852Z" fill="#F7D622"/>
<path d="M100.304 60.5361H40.4824V70.0923H100.304V60.5361Z" fill="white"/>
<path d="M100.304 70.2451H40.4824V107.86H100.304V70.2451Z" fill="white"/>
<path d="M108.016 47.125H63.6185V52.9776H108.016V47.125Z" fill="white"/>
<path d="M108.016 46.4988V47.1085H63.6185V41.2559H102.773C105.699 41.2559 108.016 43.5725 108.016 46.4988Z" fill="white"/>
<path d="M63.6186 47.1246V52.9772H32.7858V46.6521C32.7858 43.7258 35.1024 41.4092 38.0287 41.4092H63.6186V47.1094V47.1246Z" fill="white"/>
<path d="M112.329 39.4121C113.091 39.4121 113.716 40.037 113.716 40.7991C113.716 41.5611 113.091 42.186 112.329 42.186C111.567 42.186 110.942 41.5611 110.942 40.7991C110.942 40.037 111.567 39.4121 112.329 39.4121Z" fill="#020202"/>
<path d="M83.3559 31.7002C84.118 31.7002 84.7429 32.3251 84.7429 33.0871C84.7429 33.8492 84.118 34.4741 83.3559 34.4741C82.5939 34.4741 81.969 33.8492 81.969 33.0871C81.969 32.3251 82.5939 31.7002 83.3559 31.7002Z" fill="#020202"/>
<path d="M66.0876 35.5557C66.8496 35.5557 67.4745 36.1806 67.4745 36.9426C67.4745 37.7047 66.8496 38.3296 66.0876 38.3296C65.3255 38.3296 64.7006 37.7047 64.7006 36.9426C64.7006 36.1806 65.3255 35.5557 66.0876 35.5557Z" fill="#020202"/>
<path d="M56.3636 29.8564C57.1257 29.8564 57.7506 30.4813 57.7506 31.2434C57.7506 32.0054 57.1257 32.6303 56.3636 32.6303C55.6016 32.6303 54.9767 32.0054 54.9767 31.2434C54.9767 30.4813 55.6016 29.8564 56.3636 29.8564Z" fill="#020202"/>
<path d="M52.0505 45.1123C53.1326 45.1123 54.0623 46.042 54.0623 47.1241C54.0623 48.2063 53.1326 49.136 52.0505 49.136C50.9683 49.136 50.0386 48.2063 50.0386 47.1241C50.0386 46.042 50.9683 45.1123 52.0505 45.1123Z" fill="#020202"/>
<path d="M46.3503 45.1123C47.4324 45.1123 48.3621 46.042 48.3621 47.1241C48.3621 48.2063 47.4324 49.136 46.3503 49.136C45.2682 49.136 44.3537 48.2063 44.3537 47.1241C44.3537 46.042 45.2834 45.1123 46.3503 45.1123Z" fill="#020202"/>
<path d="M40.4826 45.1123C41.5647 45.1123 42.4944 46.042 42.4944 47.1241C42.4944 48.2063 41.5647 49.136 40.4826 49.136C39.4004 49.136 38.486 48.2063 38.486 47.1241C38.486 46.042 39.4157 45.1123 40.4826 45.1123Z" fill="#020202"/>
<path d="M29.3869 39.4121C30.149 39.4121 30.7739 40.037 30.7739 40.7991C30.7739 41.5611 30.149 42.186 29.3869 42.186C28.6249 42.186 28 41.5611 28 40.7991C28 40.037 28.6249 39.4121 29.3869 39.4121Z" fill="#020202"/>
<path d="M108.016 53.9063H32.7857C32.3285 53.9063 31.856 53.4491 31.856 52.9766C31.856 52.5041 32.3133 52.0469 32.7857 52.0469H108.031C108.489 52.0469 108.961 52.5041 108.961 52.9766C108.961 53.4491 108.504 53.9063 108.031 53.9063H108.016Z" fill="#020202"/>
<path d="M108.016 48.0538H63.6186C63.1614 48.0538 62.6889 47.5965 62.6889 47.124C62.6889 46.6516 63.1461 46.1943 63.6186 46.1943H108.016C108.473 46.1943 108.946 46.6516 108.946 47.124C108.946 47.5965 108.489 48.0538 108.016 48.0538Z" fill="#020202"/>
<path d="M43.424 37.4151C41.2598 37.4151 39.568 35.7234 39.568 33.5591C39.568 31.3949 41.2598 29.7031 43.424 29.7031C45.5882 29.7031 47.28 31.3949 47.28 33.5591C47.28 35.7234 45.5882 37.4151 43.424 37.4151ZM43.424 31.6997C42.3419 31.6997 41.4274 32.6294 41.4274 33.7115C41.4274 34.7937 42.3571 35.7234 43.424 35.7234C44.4909 35.7234 45.4358 34.7937 45.4358 33.7115C45.2834 32.477 44.5061 31.6997 43.424 31.6997Z" fill="#020202"/>
<path d="M96.9205 36.4859C93.9942 36.4859 91.6776 34.1693 91.6776 31.243C91.6776 28.3167 93.9942 26 96.9205 26C99.8468 26 102.163 28.3167 102.163 31.243C102.163 34.1693 99.8468 36.4859 96.9205 36.4859ZM96.9205 27.8442C95.0763 27.8442 93.5217 29.3835 93.5217 31.243C93.5217 33.1024 95.0611 34.6417 96.9205 34.6417C98.7799 34.6417 100.319 33.1024 100.319 31.243C100.319 29.3835 98.7799 27.8442 96.9205 27.8442Z" fill="#020202"/>
<path d="M63.6186 53.906C63.1614 53.906 62.6889 53.4487 62.6889 52.9763V41.4082C62.6889 40.951 63.1461 40.4785 63.6186 40.4785C64.0911 40.4785 64.5483 40.9357 64.5483 41.4082V52.9763C64.5483 53.4335 64.2435 53.906 63.6186 53.906Z" fill="#020202"/>
<path d="M102.773 116.502H38.0287C34.6299 116.502 31.856 113.729 31.856 110.33V46.4998C31.856 43.101 34.6299 40.3271 38.0287 40.3271H102.788C106.187 40.3271 108.961 43.101 108.961 46.4998V110.33C108.961 113.729 106.187 116.502 102.788 116.502H102.773ZM38.0287 42.339C35.712 42.339 33.7154 44.1832 33.7154 46.6522V110.482C33.7154 112.799 35.5596 114.795 38.0287 114.795H102.788C105.105 114.795 107.102 112.951 107.102 110.482V46.4998C107.102 44.1832 105.257 42.1866 102.788 42.1866H38.0287V42.339Z" fill="#020202"/>
<path d="M100.304 108.79H40.4824C40.0252 108.79 39.5527 108.333 39.5527 107.861V60.5215C39.5527 60.0643 40.01 59.5918 40.4824 59.5918H100.304C100.761 59.5918 101.234 60.049 101.234 60.5215V107.693C101.234 108.303 100.776 108.775 100.304 108.775V108.79ZM41.4122 106.794H99.2218V61.6189H41.4122V106.794Z" fill="#020202"/>
<path d="M49.1242 93.3818C48.6669 93.3818 48.3469 93.0769 48.1944 92.7721L45.4206 85.9898C45.2681 85.5326 45.4206 84.9077 45.8778 84.7553C46.335 84.6029 46.9599 84.7553 47.1123 85.2125L49.2766 90.1506L52.2029 85.0601C52.5077 84.6029 53.1326 84.4504 53.5898 84.7553C54.047 85.0601 54.1995 85.685 53.8946 86.1422L50.0386 92.9245C49.8862 93.2293 49.5814 93.3818 49.1089 93.3818H49.1242Z" fill="#020202"/>
<path d="M56.8363 93.3818C56.5315 93.3818 56.2267 93.2293 56.059 92.9245L52.203 86.1422C51.8982 85.685 52.0506 85.0601 52.5078 84.7553C52.9651 84.4504 53.59 84.6029 53.8948 85.0601L56.8211 90.1506L58.9853 85.2125C59.1377 84.7553 59.7626 84.4352 60.2199 84.7553C60.6771 84.9077 60.9972 85.5326 60.6771 85.9898L57.7508 92.7721C57.5984 93.0769 57.2936 93.3818 56.8211 93.3818H56.8363Z" fill="#020202"/>
<path d="M66.5449 93.3818C66.0876 93.3818 65.7676 93.0769 65.6152 92.7721L62.6889 85.9898C62.5365 85.5326 62.6889 84.9077 63.1461 84.7553C63.6033 84.6029 64.2282 84.7553 64.3806 85.2125L66.5449 90.1506L69.4712 85.0601C69.776 84.6029 70.4009 84.4504 70.8581 84.7553C71.3154 85.0601 71.4678 85.685 71.1629 86.1422L67.3069 92.9245C67.1545 93.2293 66.8497 93.3818 66.5296 93.3818H66.5449Z" fill="#020202"/>
<path d="M74.2569 93.3818C73.952 93.3818 73.632 93.2293 73.4796 92.9245L69.6236 86.1422C69.3187 85.685 69.4711 85.0601 69.9284 84.7553C70.3856 84.4504 71.0105 84.6029 71.3153 85.0601L74.2416 90.1506L76.4059 85.2125C76.5583 84.7553 77.1832 84.4352 77.6404 84.7553C78.0976 84.9077 78.4177 85.5326 78.0976 85.9898L75.1713 92.7721C75.0189 93.0769 74.7141 93.3818 74.2416 93.3818H74.2569Z" fill="#020202"/>
<path d="M83.8131 93.3818C83.3558 93.3818 83.0358 93.0769 82.8834 92.7721L79.9571 85.9898C79.8046 85.5326 79.9571 84.9077 80.4143 84.7553C80.8715 84.6029 81.4964 84.7553 81.6488 85.2125L83.8131 90.1506L86.7394 85.0601C87.0442 84.6029 87.6691 84.4504 88.1263 84.7553C88.5835 85.0601 88.7512 85.685 88.4311 86.1422L84.5751 92.9245C84.5751 93.2293 84.2703 93.3818 83.7978 93.3818H83.8131Z" fill="#020202"/>
<path d="M91.525 93.3818C91.2202 93.3818 90.9153 93.2293 90.7477 92.9245L86.8917 86.1422C86.5869 85.685 86.7393 85.0601 87.1965 84.7553C87.6537 84.4504 88.2786 84.6029 88.5834 85.0601L91.5097 90.1506L93.674 85.2125C93.8264 84.7553 94.4513 84.4352 94.9085 84.7553C95.3658 84.9077 95.6858 85.5326 95.3658 85.9898L92.4395 92.7721C92.287 93.0769 91.9822 93.3818 91.5097 93.3818H91.525Z" fill="#020202"/>
<path d="M100.304 71.1748H40.4824C40.0252 71.1748 39.5527 70.7176 39.5527 70.2451C39.5527 69.7727 40.01 69.3154 40.4824 69.3154H100.304C100.761 69.3154 101.234 69.7727 101.234 70.2451C101.234 70.7176 100.776 71.1748 100.304 71.1748Z" fill="#020202"/>
</svg>
