<svg width="181" height="181" viewBox="0 0 181 181" fill="none" xmlns="http://www.w3.org/2000/svg">
<g clip-path="url(#clip0_1073_45)">
<path d="M4.53412 89.4166C4.52991 104.624 8.50349 119.473 16.0592 132.561L3.81152 177.279L49.5751 165.28C62.2327 172.171 76.4146 175.781 90.8262 175.782H90.8641C138.44 175.782 177.167 137.069 177.188 89.4846C177.197 66.4267 168.225 44.7446 151.926 28.4322C135.629 12.1211 113.954 3.13357 90.8606 3.12305C43.2794 3.12305 4.55447 41.8346 4.53482 89.4166" fill="url(#paint0_linear_1073_45)"/>
<path d="M1.45183 89.3887C1.44692 105.143 5.56292 120.524 13.388 134.08L0.701172 180.402L48.1056 167.972C61.1671 175.094 75.873 178.848 90.8371 178.854H90.8756C140.158 178.854 180.277 138.748 180.298 89.4603C180.306 65.5739 171.012 43.1124 154.13 26.2155C137.246 9.3208 114.796 0.0098217 90.8756 0C41.5847 0 1.47147 40.1006 1.45183 89.3887ZM29.6829 131.746L27.9129 128.936C20.4723 117.105 16.545 103.433 16.5506 89.3943C16.566 48.4273 49.9065 15.0974 90.9037 15.0974C110.758 15.1058 129.416 22.8453 143.45 36.8875C157.483 50.9312 165.205 69.5994 165.2 89.4547C165.182 130.422 131.841 163.756 90.8756 163.756H90.8462C77.5076 163.749 64.4258 160.167 53.0172 153.397L50.3022 151.787L22.1714 159.163L29.6829 131.746Z" fill="url(#paint1_linear_1073_45)"/>
<path d="M68.5265 52.0181C66.8526 48.2978 65.091 48.2227 63.4992 48.1575C62.1957 48.1013 60.7056 48.1055 59.2169 48.1055C57.7268 48.1055 55.3058 48.6661 53.2594 50.9005C51.2108 53.1371 45.4385 58.5418 45.4385 69.5344C45.4385 80.527 53.4453 91.1513 54.5614 92.6435C55.679 94.1329 70.0187 117.413 92.7293 126.369C111.604 133.812 115.445 132.332 119.541 131.958C123.638 131.587 132.761 126.555 134.622 121.338C136.485 116.121 136.485 111.649 135.927 110.715C135.368 109.784 133.878 109.225 131.644 108.108C129.409 106.991 118.424 101.585 116.376 100.839C114.327 100.094 112.838 99.7221 111.348 101.959C109.858 104.193 105.579 109.225 104.275 110.715C102.972 112.208 101.668 112.394 99.434 111.277C97.1982 110.156 90.0024 107.799 81.4652 100.188C74.8229 94.2655 70.3386 86.9518 69.0351 84.7145C67.7316 82.4808 68.8955 81.2699 70.0159 80.1566C71.0198 79.1555 72.251 77.5475 73.3693 76.2433C74.4834 74.9384 74.8552 74.0075 75.6002 72.5174C76.346 71.0259 75.9728 69.721 75.415 68.6034C74.8552 67.4859 70.5133 56.4358 68.5265 52.0181Z" fill="black"/>
</g>
<defs>
<linearGradient id="paint0_linear_1073_45" x1="8672.62" y1="17418.8" x2="8672.62" y2="3.12305" gradientUnits="userSpaceOnUse">
<stop stop-color="#FCC608"/>
<stop offset="1" stop-color="#F7D622"/>
</linearGradient>
<linearGradient id="paint1_linear_1073_45" x1="8980.55" y1="18040.2" x2="8980.55" y2="0" gradientUnits="userSpaceOnUse">
<stop/>
<stop offset="1"/>
</linearGradient>
<clipPath id="clip0_1073_45">
<rect width="181" height="181" fill="white"/>
</clipPath>
</defs>
</svg>
